<?xml version="1.0" standalone="no"?>
<!DOCTYPE svg PUBLIC "-//W3C//DTD SVG 20010904//EN"
 "http://www.w3.org/TR/2001/REC-SVG-20010904/DTD/svg10.dtd">
<svg version="1.0" xmlns="http://www.w3.org/2000/svg"
 width="617.000000pt" height="617.000000pt" viewBox="0 0 617.000000 617.000000"
 preserveAspectRatio="xMidYMid meet">
<metadata>
Created by potrace 1.14, written by Peter Selinger 2001-2017
</metadata>
<g transform="translate(0.000000,617.000000) scale(0.100000,-0.100000)"
fill="#000000" stroke="none">
<path d="M3086 6048 c3 -5 10 -6 15 -3 13 9 11 12 -6 12 -8 0 -12 -4 -9 -9z"/>
<path d="M3600 6050 c-9 -6 -10 -10 -3 -10 6 0 15 5 18 10 8 12 4 12 -15 0z"/>
<path d="M3726 6052 c-3 -5 1 -9 9 -9 8 0 12 4 9 9 -3 4 -7 8 -9 8 -2 0 -6 -4
-9 -8z"/>
<path d="M3794 6052 c3 -6 1 -14 -6 -19 -18 -11 -72 -10 -80 2 -5 6 -8 4 -8
-5 0 -13 -2 -13 -9 -1 -8 12 -12 12 -25 2 -10 -8 -16 -9 -16 -3 0 7 -10 8 -30
2 -36 -10 -38 -10 -66 1 -12 4 -25 5 -28 2 -9 -9 -106 -9 -106 0 0 4 -9 3 -20
-3 -11 -6 -20 -7 -20 -2 0 10 -36 9 -46 -1 -10 -10 -26 -9 -20 1 3 5 -5 7 -17
6 -12 -1 -22 -3 -22 -4 0 -1 -19 -3 -42 -4 -24 -1 -43 1 -43 5 0 6 -22 5 -40
-1 -17 -6 -210 -4 -210 3 0 4 -9 3 -20 -3 -11 -6 -20 -7 -20 -2 0 10 -36 9
-46 -1 -10 -10 -26 -9 -20 1 3 5 -5 7 -17 6 -12 -1 -22 -3 -22 -4 0 -1 -19 -3
-42 -4 -24 -1 -43 2 -43 7 0 5 -8 6 -17 2 -10 -4 -63 -8 -118 -9 -55 -1 -105
-5 -112 -9 -6 -4 -14 -1 -16 5 -4 10 -6 10 -6 0 -1 -7 -6 -10 -11 -7 -6 4 -18
1 -26 -6 -11 -9 -18 -8 -33 5 -15 13 -18 14 -18 1 0 -8 4 -12 9 -9 4 3 8 1 8
-4 0 -12 -47 -25 -61 -17 -5 4 -7 10 -4 15 3 5 1 11 -4 14 -11 7 -9 -13 2 -31
5 -8 3 -13 -3 -13 -6 0 -8 -4 -5 -10 3 -6 -1 -7 -10 -3 -13 4 -14 7 -3 14 9 6
6 8 -9 6 -21 -1 -21 -2 -6 -19 14 -16 14 -18 1 -18 -8 0 -20 -10 -26 -22 l-10
-23 1 23 c1 12 5 22 10 22 5 0 7 5 5 11 -2 6 -8 9 -13 7 -9 -3 -11 -7 -18 -40
-2 -10 -7 -21 -12 -25 -4 -4 -5 -2 -1 5 4 7 1 12 -8 12 -10 0 -13 6 -10 18 5
16 5 16 -5 0 -8 -11 -20 -15 -39 -12 -18 3 -22 1 -14 -4 8 -5 13 -12 13 -16
-3 -20 0 -26 9 -21 6 3 13 -1 16 -9 3 -9 11 -13 17 -9 6 4 7 1 3 -6 -5 -7 -10
-10 -14 -7 -3 3 -10 -2 -17 -11 -9 -13 -14 -13 -20 -3 -5 8 -4 11 2 7 6 -4 14
0 17 9 9 24 7 28 -7 16 -9 -8 -17 -8 -27 0 -12 8 -11 8 5 3 14 -4 17 -3 9 5
-6 6 -18 8 -28 4 -15 -6 -15 -7 1 -20 10 -7 14 -14 9 -14 -5 0 -3 -7 4 -15 17
-20 8 -27 -24 -19 -24 6 -25 7 -8 23 10 9 16 15 13 14 -2 -2 -11 3 -19 10 -11
8 -14 8 -9 0 4 -6 -4 -25 -18 -41 -28 -34 -32 -57 -10 -66 8 -3 15 -9 14 -13
-1 -4 0 -10 1 -13 7 -20 7 -40 -2 -40 -6 0 -7 7 -4 16 3 8 2 12 -4 9 -5 -3 -7
4 -5 15 2 11 0 18 -5 15 -5 -3 -11 -1 -15 5 -3 5 -11 10 -17 10 -5 0 0 -8 13
-18 15 -13 19 -21 11 -26 -7 -4 -12 -2 -12 3 0 6 -8 11 -17 11 -17 -1 -17 -1
-1 -11 9 -5 15 -16 12 -24 -4 -8 -10 -13 -14 -10 -14 9 -23 -16 -11 -28 9 -9
11 -7 5 8 -5 16 -4 18 6 8 7 -6 10 -19 6 -28 -5 -14 -9 -15 -21 -5 -9 7 -15 8
-15 2 0 -5 7 -13 16 -16 8 -3 12 -11 8 -17 -4 -8 -9 -7 -15 2 -5 8 -9 9 -9 4
0 -6 6 -17 13 -24 10 -11 9 -13 -6 -8 -11 4 -16 3 -12 -3 7 -11 41 -8 52 5 5
4 3 6 -2 2 -7 -3 -11 4 -11 18 0 13 4 21 10 18 5 -3 6 -1 2 5 -3 6 -2 14 4 17
8 5 7 11 -1 21 -17 20 -2 17 19 -4 17 -17 17 -19 -6 -36 -13 -10 -21 -20 -18
-24 3 -3 16 3 28 14 l23 19 -18 -22 c-10 -12 -20 -29 -21 -39 -2 -14 -12 -19
-36 -19 -19 0 -34 -6 -36 -13 -1 -7 0 -8 3 -2 2 5 9 10 14 10 6 0 7 -4 4 -10
-3 -5 -1 -10 6 -10 7 0 9 -3 6 -7 -4 -3 -2 -12 4 -19 7 -9 5 -18 -9 -32 -18
-18 -18 -19 -1 -31 11 -6 19 -16 19 -21 0 -6 -8 -5 -20 2 -15 10 -22 10 -31 1
-9 -9 -7 -11 8 -7 14 4 20 0 20 -11 0 -10 -6 -14 -16 -10 -13 5 -14 4 -3 -6
14 -15 16 -33 2 -24 -5 3 -10 1 -10 -5 0 -7 8 -9 22 -4 21 6 22 5 8 -11 -11
-14 -12 -17 -1 -11 9 6 12 5 9 -5 -3 -8 -12 -13 -21 -11 -8 1 -18 -2 -22 -7
-3 -6 -13 -7 -23 -4 -9 3 -14 3 -10 -1 5 -7 26 -13 51 -15 4 -1 7 -6 7 -12 0
-5 -5 -7 -12 -3 -7 5 -8 3 -4 -5 5 -7 10 -10 13 -7 7 6 53 -44 53 -58 0 -6 -4
-5 -9 3 -5 8 -11 9 -15 3 -7 -11 9 -25 32 -28 8 -2 17 -6 20 -10 4 -4 -1 -4
-11 -1 -11 4 -20 1 -24 -9 -3 -8 -12 -13 -20 -10 -9 4 -11 2 -7 -6 5 -7 3 -8
-5 -4 -7 5 -9 15 -6 25 13 31 13 70 -1 75 -9 3 -11 0 -7 -11 4 -10 2 -14 -4
-10 -6 4 -16 0 -24 -9 -10 -13 -9 -16 9 -21 28 -7 28 -19 1 -26 l-20 -5 20
-41 c23 -44 26 -55 13 -47 -11 7 -52 -22 -52 -36 0 -7 6 -4 13 7 10 13 16 15
21 6 4 -6 12 -8 18 -5 8 5 9 1 5 -10 -4 -10 -3 -15 3 -11 6 3 10 -1 10 -9 0
-21 -5 -20 -31 7 l-22 22 21 -37 21 -38 -21 -14 c-12 -8 -25 -13 -29 -10 -4 2
-10 0 -14 -5 -6 -10 16 -8 48 4 10 4 17 3 17 -4 0 -6 -6 -11 -14 -11 -15 0
-32 -37 -22 -47 3 -4 6 1 6 11 0 9 7 19 15 22 9 4 20 15 26 26 8 15 8 19 0 14
-6 -4 -11 -2 -11 3 0 6 5 11 11 11 6 0 9 7 6 15 -4 8 -2 17 4 21 6 4 6 11 -1
19 -7 8 -8 20 -4 26 4 8 3 9 -4 5 -7 -4 -12 -2 -12 3 0 6 5 11 11 11 8 0 8 4
-1 15 -6 8 -8 20 -4 26 4 8 3 9 -4 5 -7 -4 -12 -3 -12 3 0 5 5 13 10 16 6 3
10 1 10 -5 0 -6 9 -4 23 5 20 13 24 13 24 1 0 -9 -6 -12 -16 -8 -14 5 -14 4
-2 -11 8 -10 11 -20 7 -24 -3 -3 -6 -2 -6 4 0 5 -7 10 -15 10 -23 0 -18 -16 8
-27 20 -8 20 -9 2 -10 -17 0 -17 -2 -5 -10 10 -6 11 -10 3 -10 -7 0 -13 -5
-13 -11 0 -5 6 -7 13 -3 6 4 9 4 5 -1 -4 -4 0 -14 10 -22 16 -12 16 -13 0 -7
-13 4 -16 1 -13 -15 2 -12 1 -21 -3 -21 -13 0 -12 -43 1 -59 9 -12 9 -13 0 -7
-7 4 -13 2 -13 -3 0 -6 4 -11 8 -11 5 0 9 -18 9 -39 0 -32 -3 -39 -19 -38 -10
1 -18 5 -18 10 0 5 6 7 13 4 8 -3 14 1 14 9 0 7 -5 11 -10 7 -5 -3 -4 5 3 17
10 18 9 21 -1 15 -8 -5 -10 -4 -5 3 4 7 2 12 -5 12 -8 0 -8 4 1 15 11 13 10
14 -3 9 -19 -7 -30 -32 -20 -47 4 -6 0 -8 -9 -4 -17 6 -19 -16 -3 -30 4 -4 5
-2 0 6 -5 9 -3 12 6 9 8 -3 12 -12 10 -19 -2 -8 -4 -25 -4 -39 1 -24 1 -24
-13 -5 -15 20 -15 19 -5 -34 1 -2 9 3 18 10 18 15 18 16 -3 -36 -3 -8 -1 -15
6 -15 6 0 8 -5 4 -12 -5 -7 -11 -5 -21 7 -7 11 -13 15 -13 10 0 -5 7 -17 17
-27 9 -11 11 -18 5 -18 -7 0 -11 -3 -10 -7 1 -5 -3 -18 -10 -31 -7 -12 -9 -22
-5 -21 21 4 29 -3 30 -23 2 -22 1 -22 -13 -4 -8 11 -14 15 -14 9 0 -14 25 -34
33 -26 4 3 7 1 7 -5 0 -7 -6 -12 -14 -12 -8 0 -17 -7 -20 -16 -3 -9 -11 -12
-18 -8 -7 4 -10 4 -6 -1 4 -4 2 -15 -4 -24 -7 -9 -1 -6 14 7 16 15 28 20 33
13 3 -6 1 -11 -5 -11 -7 0 -10 -6 -7 -12 2 -7 10 -12 16 -10 6 1 11 -2 11 -8
0 -5 -6 -10 -14 -10 -21 0 -30 -20 -16 -33 10 -9 12 -8 7 5 -4 10 1 18 14 21
10 3 19 1 19 -4 0 -5 -5 -9 -12 -9 -6 0 -8 -3 -5 -6 3 -4 2 -15 -4 -26 -10
-19 -11 -19 -25 -1 -14 17 -14 16 -4 -5 9 -19 14 -21 26 -11 22 18 16 -2 -8
-29 l-23 -24 22 -18 c22 -17 22 -18 3 -23 -11 -3 -20 -11 -19 -19 0 -10 2 -10
6 0 7 17 20 15 20 -3 0 -8 -4 -15 -9 -15 -5 0 -6 -4 -3 -10 3 -5 1 -10 -4 -10
-6 0 -11 5 -11 10 0 6 -4 10 -8 10 -5 0 -9 -7 -9 -15 0 -8 4 -12 8 -10 9 6 30
-20 22 -28 -9 -10 -25 -9 -19 1 2 4 -4 9 -15 9 -10 1 -19 -3 -19 -9 0 -6 3 -8
7 -5 3 4 12 2 20 -4 9 -8 17 -8 26 0 8 6 18 7 22 3 5 -4 5 -1 0 7 -5 8 -4 12
1 8 11 -6 13 38 2 48 -9 10 2 36 13 30 4 -3 5 -13 2 -23 -6 -15 -5 -16 12 -2
15 12 17 12 10 1 -6 -10 -4 -13 6 -9 10 4 14 -2 14 -18 l0 -24 -18 23 c-19 22
-19 16 -1 -29 5 -11 2 -15 -11 -12 -10 2 -20 -3 -22 -10 -3 -7 -1 -11 4 -10 4
2 9 -1 10 -5 1 -5 10 -15 20 -23 11 -9 13 -13 4 -12 -7 2 -16 -3 -19 -11 -3
-8 0 -11 7 -7 6 4 11 2 11 -4 0 -7 -8 -9 -22 -4 -20 6 -21 5 -10 -9 16 -19 7
-38 -14 -30 -9 3 -11 10 -6 17 5 6 8 23 7 38 -2 22 1 26 12 17 20 -18 16 6 -6
25 -16 14 -21 15 -32 3 -8 -7 -19 -12 -26 -10 -6 2 -15 -1 -19 -8 -4 -8 -3 -9
4 -5 14 8 55 -17 45 -27 -3 -4 -13 -1 -22 5 -9 7 -5 1 7 -14 23 -26 23 -27 4
-37 -11 -6 -22 -7 -26 -3 -4 3 -4 -1 -1 -11 6 -14 9 -15 21 -2 15 14 48 10 39
-6 -3 -4 -12 -6 -19 -3 -7 3 -16 -2 -20 -11 -3 -10 -11 -13 -18 -9 -8 4 -10 3
-5 -2 5 -5 13 -10 18 -10 5 -1 14 -2 19 -3 6 0 10 -6 10 -12 0 -6 -7 -8 -16
-5 -14 6 -15 4 -4 -9 11 -13 15 -13 21 -3 6 9 9 9 9 1 0 -18 -20 -27 -33 -14
-6 6 -16 11 -21 11 -6 0 1 -8 17 -18 15 -10 24 -23 20 -27 -5 -5 0 -4 9 4 15
11 17 10 15 -8 -1 -12 -6 -20 -12 -17 -6 2 -19 -2 -30 -10 -10 -8 -14 -14 -9
-14 6 0 15 5 22 12 7 7 12 8 12 2 0 -5 -5 -15 -12 -22 -7 -7 -8 -12 -4 -12 5
0 15 8 23 18 13 15 14 15 9 0 -3 -12 -1 -15 10 -11 9 3 11 10 6 17 -12 17 -8
41 7 38 7 -1 11 3 9 10 -3 7 -10 13 -15 13 -6 0 -15 4 -20 9 -5 5 -2 6 5 1 12
-6 12 -3 2 15 -10 18 -10 21 2 15 7 -3 4 1 -6 9 -11 9 -24 16 -29 16 -4 0 -5
5 -2 10 5 8 11 8 20 0 9 -8 15 -8 20 0 3 5 3 10 -1 10 -11 0 29 29 40 30 6 0
1 -7 -10 -15 -16 -12 -17 -16 -5 -24 8 -5 16 -20 18 -33 2 -17 1 -19 -6 -8 -5
8 -7 18 -5 22 3 4 1 8 -4 8 -19 0 -21 -14 -7 -37 9 -13 13 -23 10 -23 -3 0 -1
-10 6 -21 6 -12 7 -19 2 -16 -10 6 -34 -18 -26 -27 3 -3 11 -2 17 4 7 5 17 5
26 -2 13 -8 12 -9 -2 -5 -9 3 -22 0 -28 -8 -9 -10 -7 -14 7 -18 17 -4 9 -5
-64 -8 -13 0 -25 -4 -28 -10 -4 -5 2 -6 11 -2 11 4 15 3 10 -5 -3 -6 2 -13 12
-16 10 -3 18 -16 19 -28 2 -23 2 -23 -14 -3 -14 18 -15 18 -9 1 9 -26 -12 -50
-31 -35 -11 10 -12 8 -7 -5 4 -10 13 -15 20 -12 16 6 18 -3 5 -23 -6 -9 -11
-10 -15 -2 -9 14 -26 14 -26 0 0 -5 4 -8 9 -4 5 3 12 1 15 -3 3 -5 17 -8 31
-7 14 2 25 0 25 -4 0 -4 7 -8 15 -8 9 0 14 5 12 11 -3 6 -9 10 -14 9 -11 -2
-11 56 1 75 4 7 2 12 -5 12 -7 0 -10 3 -6 6 3 3 16 -2 29 -11 14 -11 16 -15 6
-12 -10 4 -20 2 -23 -3 -6 -10 5 -13 35 -11 10 0 11 -1 2 -5 -6 -3 -10 -10 -6
-15 3 -5 0 -8 -7 -7 -6 2 -14 -3 -17 -11 -2 -8 0 -11 6 -7 6 4 9 -4 7 -19 -2
-21 1 -25 19 -20 11 2 15 2 8 -1 -6 -3 -9 -11 -5 -17 4 -7 -5 -4 -20 6 -15 9
-27 13 -27 7 0 -6 7 -13 16 -17 13 -5 13 -7 2 -15 -10 -7 -9 -11 6 -23 11 -8
15 -15 10 -15 -6 0 -15 5 -21 11 -8 8 -17 8 -33 -1 -18 -10 -21 -9 -18 2 3 7
11 13 19 13 12 0 15 12 10 43 -2 11 -41 13 -41 2 0 -5 -8 -7 -17 -4 -15 5 -15
4 -3 -4 8 -7 19 -7 25 -2 6 5 17 5 25 0 8 -6 13 -10 10 -11 -3 0 -13 -2 -24
-4 -32 -6 -43 -25 -24 -39 10 -7 15 -16 11 -19 -3 -4 -1 -7 6 -7 7 0 9 -5 5
-11 -4 -8 -9 -8 -17 0 -6 6 -15 11 -21 11 -5 0 -1 -7 10 -15 15 -12 16 -16 5
-24 -18 -11 -5 -32 15 -24 14 5 14 3 3 -15 -7 -11 -18 -18 -26 -15 -7 3 -11 9
-8 13 3 5 1 11 -4 14 -5 4 -8 -1 -7 -10 3 -18 26 -35 38 -28 4 3 8 0 8 -5 0
-6 -10 -11 -22 -12 -23 0 -23 0 1 -10 23 -9 23 -10 6 -23 -18 -13 -18 -14 3
-36 12 -13 21 -25 19 -26 -7 -7 -46 9 -42 16 3 5 2 11 -3 14 -5 3 -9 -2 -9
-11 0 -9 9 -18 19 -21 10 -2 18 -9 18 -14 0 -5 -4 -7 -8 -4 -5 3 -9 -2 -9 -10
0 -10 4 -11 11 -4 17 17 27 11 14 -9 -6 -11 -19 -17 -27 -14 -14 4 -14 3 -1
-5 10 -8 19 -5 35 11 11 12 18 24 14 27 -10 8 -6 40 4 33 6 -3 7 -1 3 6 -4 6
-11 9 -15 7 -4 -3 -12 4 -19 15 -7 10 -8 19 -3 19 6 0 13 -4 16 -10 3 -5 12
-10 18 -10 7 0 6 4 -3 10 -12 7 -12 10 -1 10 7 0 11 6 7 15 -10 26 3 16 19
-15 13 -26 14 -29 0 -24 -8 4 -15 2 -15 -4 0 -18 29 -21 39 -4 6 9 11 12 11 5
0 -6 -5 -15 -10 -18 -6 -4 -8 -10 -5 -15 3 -5 0 -12 -6 -16 -8 -5 -9 -3 -4 6
5 8 3 11 -6 8 -22 -7 -14 -64 11 -86 8 -8 10 -11 4 -8 -7 3 -11 -6 -12 -25 0
-16 4 -27 9 -24 5 4 9 1 9 -5 0 -7 -7 -9 -16 -6 -9 3 -18 6 -20 6 -3 0 0 10 7
21 9 17 8 20 -3 16 -7 -2 -12 -10 -10 -16 1 -6 -3 -11 -9 -11 -6 0 -9 6 -6 13
6 15 -27 17 -40 2 -5 -4 -2 -5 5 -1 6 4 12 2 12 -3 0 -6 -6 -11 -14 -11 -21 0
-27 -28 -8 -39 16 -9 15 -11 -3 -25 -11 -8 -16 -16 -11 -16 6 0 1 -6 -10 -14
-16 -12 -17 -17 -6 -28 11 -11 12 -10 7 3 -4 10 0 19 10 23 9 3 14 10 11 15
-3 5 1 12 10 15 12 5 15 2 10 -9 -3 -10 -2 -13 5 -10 5 4 7 16 4 26 -6 18 -4
19 12 8 11 -6 25 -24 32 -40 8 -18 17 -26 24 -22 16 10 41 13 32 5 -4 -4 -11
-8 -16 -8 -5 -1 -11 -3 -14 -4 -3 -1 -11 -3 -17 -4 -7 0 -14 -10 -16 -21 -3
-16 -1 -17 7 -5 7 10 11 11 11 3 0 -7 6 -10 14 -7 8 3 17 1 21 -5 4 -7 0 -8
-11 -4 -12 4 -15 3 -10 -5 4 -7 2 -12 -6 -12 -10 0 -9 -3 2 -11 13 -9 12 -10
-2 -5 -10 3 -20 1 -23 -4 -3 -4 1 -10 7 -13 10 -3 9 -8 -2 -22 -14 -17 -13
-18 2 -12 13 4 15 2 11 -10 -5 -12 -3 -14 8 -8 8 5 3 -4 -10 -18 -14 -15 -20
-27 -14 -27 6 0 16 7 23 15 7 8 17 15 23 15 6 0 1 -7 -12 -17 -23 -15 -23 -17
-6 -30 11 -7 14 -13 8 -13 -7 0 -15 5 -18 10 -3 6 -12 10 -18 10 -7 -1 -2 -9
10 -19 12 -10 19 -21 16 -25 -3 -3 -12 2 -19 12 -12 15 -13 15 -14 1 0 -9 9
-24 20 -34 12 -10 19 -24 16 -31 -3 -7 -1 -15 5 -18 5 -2 4 -3 -3 -2 -7 2 -13
10 -13 19 0 9 -6 22 -13 29 -11 11 -12 8 -8 -16 3 -16 8 -31 10 -34 3 -3 1
-11 -5 -19 -9 -10 -7 -18 7 -35 11 -12 13 -18 5 -13 -11 6 -13 4 -8 -8 3 -9 1
-19 -5 -23 -7 -5 -5 -12 8 -22 13 -10 14 -13 3 -9 -23 8 -40 -6 -29 -23 7 -10
10 -11 10 -2 0 6 4 12 10 12 5 0 9 -6 7 -12 -1 -7 4 -12 11 -11 6 2 12 -2 12
-7 0 -6 -7 -10 -15 -10 -8 0 -15 5 -15 12 0 6 -3 8 -7 5 -3 -4 -15 1 -25 10
-18 16 -18 17 4 30 15 8 18 12 8 13 -13 0 -13 1 0 10 13 9 13 10 0 10 -12 0
-13 2 -1 9 7 5 10 14 7 20 -4 6 -12 9 -17 5 -5 -3 -7 -9 -4 -14 3 -4 -2 -10
-10 -13 -9 -4 -12 -1 -8 9 5 14 -8 20 -20 8 -13 -14 6 -34 27 -28 19 6 19 5 7
-10 -8 -9 -15 -27 -15 -39 -1 -12 -5 -28 -9 -34 -4 -7 -3 -22 3 -33 9 -16 8
-24 -5 -36 -17 -18 -20 -40 -5 -49 6 -4 8 -11 5 -16 -4 -5 -1 -9 4 -9 14 0 14
6 -1 30 -10 16 -10 22 1 32 10 11 12 10 9 -2 -1 -8 2 -15 7 -15 6 0 9 13 8 29
-1 17 2 24 7 17 5 -10 9 -9 13 4 4 9 3 13 -3 10 -6 -3 -10 -2 -10 3 0 5 9 12
20 15 17 4 18 2 9 -15 -8 -15 -8 -22 1 -28 9 -6 9 -9 0 -15 -9 -6 -6 -13 11
-27 13 -11 18 -17 12 -13 -27 13 -52 13 -57 -2 -8 -19 8 -50 18 -34 12 20 24
12 21 -14 -1 -14 -10 -34 -19 -44 -18 -20 -22 -41 -4 -23 18 18 25 15 24 -11
-3 -27 12 -49 28 -40 6 3 5 0 -2 -8 -11 -12 -14 -12 -22 1 -17 27 -22 2 -5
-27 12 -19 12 -22 2 -10 -8 10 -17 15 -20 10 -5 -8 27 -54 34 -50 3 1 1 -2 -4
-8 -5 -6 -10 -6 -15 0 -10 14 -32 17 -32 4 0 -5 -5 -7 -11 -3 -8 4 -7 9 2 15
8 5 10 9 6 9 -4 0 -3 10 4 21 6 12 7 19 2 16 -5 -3 -10 4 -10 16 -2 15 0 18 6
9 7 -11 10 -10 14 3 4 9 3 13 -3 10 -6 -3 -11 -1 -11 4 -1 6 -2 17 -3 24 -1 6
-8 11 -15 9 -7 -1 -11 3 -9 10 3 7 10 13 16 13 5 0 14 4 19 9 4 5 3 7 -3 3 -6
-3 -10 4 -10 19 1 13 -3 23 -9 21 -5 -1 -8 -8 -7 -16 2 -7 -1 -10 -7 -6 -6 3
-11 13 -11 21 0 8 -5 14 -10 14 -7 0 -7 -6 -2 -17 10 -20 9 -73 -1 -90 -4 -7
1 -14 13 -18 11 -3 20 -11 20 -16 0 -13 -6 -11 -38 7 -28 16 -20 9 32 -29 14
-11 16 -18 9 -32 -7 -12 -13 -14 -17 -6 -11 17 -22 13 -23 -9 -1 -11 7 -25 18
-30 14 -8 19 -7 19 1 0 16 13 2 16 -16 3 -18 -1 -18 -27 -5 -13 7 -19 7 -19 0
0 -5 7 -10 15 -10 8 0 15 -4 15 -10 0 -5 -7 -10 -15 -10 -8 0 -15 -4 -15 -10
0 -5 6 -7 13 -4 8 3 20 -3 28 -12 12 -15 12 -16 -6 -11 -11 4 -26 3 -34 -2
-11 -7 -9 -10 8 -16 11 -3 21 -11 21 -16 0 -6 -5 -7 -10 -4 -6 3 -10 2 -10 -4
0 -5 9 -13 20 -16 11 -4 18 -11 14 -16 -4 -6 -11 -6 -20 2 -8 6 -14 8 -15 3 0
-5 -5 0 -10 11 l-9 20 3 -20 c1 -11 8 -21 15 -21 26 -3 26 -5 3 -18 l-24 -13
22 -15 22 -15 -23 -8 c-13 -4 -26 -7 -30 -6 -4 0 -5 -6 -2 -14 5 -13 8 -13 21
0 18 19 27 19 44 -1 11 -13 9 -15 -17 -9 -23 4 -25 3 -9 -4 14 -7 16 -10 5
-11 -9 -1 -6 -5 8 -11 13 -5 21 -13 17 -19 -4 -6 1 -7 10 -3 13 5 14 7 3 14
-10 7 -10 9 2 9 9 0 11 3 5 8 -15 11 -17 32 -2 32 8 0 7 4 -3 10 -8 5 -10 10
-4 10 5 0 15 -5 21 -11 15 -15 46 -18 63 -5 13 9 13 9 2 -6 -12 -16 -39 -17
-62 -3 -6 3 -10 -1 -10 -10 0 -10 5 -14 13 -9 9 5 9 4 -1 -7 -10 -11 -8 -17
10 -32 20 -16 20 -17 2 -8 -20 10 -47 1 -44 -15 2 -13 43 -33 54 -27 5 4 6 1
2 -5 -4 -6 -13 -9 -20 -6 -15 6 -17 -41 -2 -64 4 -7 2 -20 -6 -29 -11 -14 -10
-15 10 -9 15 5 22 3 22 -5 0 -7 -3 -9 -7 -6 -8 8 -33 -11 -33 -25 0 -6 8 -4
18 3 15 12 15 11 -1 -8 -10 -12 -14 -24 -9 -27 6 -3 12 1 16 9 3 8 11 15 18
15 9 0 8 -3 -2 -10 -8 -5 -10 -10 -5 -10 7 0 7 -3 0 -8 -5 -4 -16 -15 -24 -25
-13 -17 -12 -18 11 -12 14 4 29 2 32 -3 3 -6 -3 -8 -16 -6 -13 2 -17 1 -10 -2
10 -5 8 -10 -7 -21 -12 -8 -19 -19 -15 -24 3 -6 12 -3 20 8 11 13 14 14 12 3
-2 -8 -7 -18 -13 -22 -7 -5 -6 -14 3 -28 6 -11 12 -23 12 -27 0 -5 -5 0 -11
10 -14 24 -33 22 -19 -2 5 -11 7 -27 3 -37 -4 -10 -2 -15 3 -11 6 3 16 1 24
-5 12 -8 12 -9 -2 -4 -19 6 -21 -16 -3 -44 8 -13 7 -13 -8 -1 -10 8 -20 11
-23 9 -3 -3 6 -15 20 -26 21 -16 23 -21 10 -26 -8 -3 -12 -2 -9 4 3 5 -3 9
-12 9 -25 0 -51 6 -59 14 -11 10 -24 9 -24 -3 0 -5 5 -9 11 -7 6 1 14 -4 16
-11 3 -7 -1 -10 -10 -6 -8 3 -18 1 -22 -5 -4 -7 1 -8 12 -4 14 5 12 -1 -9 -29
-16 -20 -28 -40 -28 -44 0 -4 10 6 22 22 12 16 24 33 28 37 4 4 13 0 21 -9 13
-16 12 -17 -6 -10 -11 4 -17 4 -13 1 3 -3 -5 -17 -18 -30 -13 -13 -24 -30 -24
-37 0 -10 2 -10 9 1 6 9 11 10 15 2 4 -6 13 -11 19 -11 7 0 4 5 -5 11 -10 5
-18 15 -18 21 0 7 5 6 15 -2 10 -9 15 -9 15 -1 0 6 -6 11 -12 11 -9 0 -8 4 2
10 23 15 27 12 25 -21 -1 -30 -18 -49 -39 -45 -6 2 -8 1 -4 -1 5 -3 3 -13 -3
-24 -8 -15 -6 -21 6 -25 8 -4 21 -1 29 5 11 9 13 5 12 -23 -1 -29 -5 -33 -25
-33 -23 0 -24 0 -6 13 10 8 16 16 13 19 -3 3 -13 -1 -22 -10 -17 -17 -13 -37
7 -34 25 3 38 -1 32 -11 -3 -5 -13 -7 -23 -4 -14 5 -15 4 -2 -5 13 -10 13 -13
-4 -26 -17 -13 -17 -15 -4 -15 9 0 19 9 23 20 3 11 11 19 17 17 6 -1 13 4 15
11 3 6 0 12 -6 12 -6 0 -3 8 7 18 9 11 21 17 26 14 5 -3 7 1 4 9 -3 8 -11 14
-19 14 -10 0 -14 14 -14 50 0 28 -4 56 -9 64 -6 9 -5 12 1 8 7 -4 10 5 8 24
-3 29 -15 54 -15 30 0 -7 -5 -9 -11 -5 -8 4 -7 9 2 14 16 11 41 1 32 -13 -4
-6 0 -8 10 -4 9 3 19 2 22 -4 4 -5 3 -9 -2 -8 -20 3 -30 -2 -30 -16 0 -8 4
-15 9 -15 4 0 8 5 8 10 0 6 5 10 10 10 17 0 11 -18 -8 -24 -11 -4 -18 -15 -17
-26 1 -21 15 -41 15 -22 0 7 5 12 11 12 5 0 7 -5 3 -12 -5 -8 -2 -9 10 -5 11
4 15 3 11 -4 -4 -6 -14 -8 -22 -5 -11 5 -14 2 -9 -11 5 -15 4 -15 -9 1 -11 14
-15 16 -15 5 1 -23 27 -53 33 -37 3 7 4 0 3 -15 0 -15 -6 -31 -11 -35 -6 -4
-11 -11 -12 -17 -1 -5 -5 -19 -9 -29 -5 -13 -4 -17 4 -12 6 3 14 1 18 -5 5 -8
9 -7 14 2 10 15 38 21 45 9 3 -5 -3 -7 -12 -6 -16 3 -53 -37 -53 -56 0 -15 19
-8 22 9 2 9 13 17 25 18 12 1 20 -2 17 -7 -4 -5 -13 -7 -21 -4 -11 5 -14 1
-10 -14 3 -10 2 -19 -2 -18 -19 2 -31 -3 -26 -12 3 -5 13 -7 23 -4 16 5 16 5
0 -6 -17 -10 -14 -45 3 -35 4 3 13 -5 19 -17 9 -19 9 -21 -2 -8 -7 9 -18 15
-25 15 -14 0 -30 -15 -17 -15 6 0 19 -7 30 -15 19 -15 19 -15 -1 -8 l-20 6 20
-23 c11 -13 14 -20 6 -15 -11 6 -13 4 -8 -9 4 -10 7 -19 7 -22 0 -2 6 -2 12 0
7 1 10 1 5 -1 -4 -3 -4 -10 -1 -16 5 -8 2 -8 -7 0 -17 17 -37 17 -21 1 7 -7
12 -19 12 -27 0 -8 -3 -11 -7 -7 -5 4 -8 12 -8 17 0 9 -11 10 -30 2 -6 -2 -11
-14 -12 -26 l-2 -22 13 23 c6 12 15 20 19 16 4 -4 2 -13 -5 -21 -6 -7 -8 -16
-5 -20 4 -3 1 -15 -5 -27 -6 -11 -7 -18 -3 -14 4 4 17 3 29 -3 19 -9 19 -9 4
4 -23 18 -23 23 1 23 11 0 18 -3 16 -6 -2 -3 6 -17 16 -30 l20 -25 -11 25
c-10 22 -10 23 3 8 8 -10 18 -14 22 -10 5 4 5 2 2 -4 -3 -6 3 -18 13 -27 18
-15 20 -15 35 6 8 12 15 16 15 10 0 -7 -5 -15 -10 -18 -6 -4 -8 -10 -6 -14 3
-4 -6 -7 -19 -7 -13 0 -21 4 -18 10 4 5 1 6 -7 1 -9 -6 -11 -4 -5 5 6 9 4 11
-5 5 -9 -6 -11 -4 -5 5 5 9 4 11 -4 6 -6 -4 -19 -2 -27 5 -20 16 -34 0 -23
-26 9 -18 9 -18 5 3 -3 15 0 22 7 19 7 -3 11 -9 10 -15 -2 -7 4 -9 13 -5 15 5
15 3 -1 -23 -9 -16 -11 -22 -4 -14 12 13 32 18 42 10 9 -8 50 -5 53 4 3 7 15
12 27 13 19 2 18 -1 -8 -15 -16 -9 -34 -15 -38 -14 -5 1 -5 -3 -1 -9 5 -9 2
-10 -12 -5 -38 16 -50 18 -32 6 9 -6 15 -17 12 -25 -4 -8 -1 -15 6 -15 6 0 8
5 5 10 -3 6 1 10 9 10 18 0 21 -16 6 -25 -13 -8 6 -35 24 -35 6 0 3 7 -7 14
-12 10 -15 16 -7 21 6 4 9 13 6 20 -2 7 1 16 9 19 15 6 65 -15 65 -27 0 -5 5
-5 12 -1 7 4 8 3 4 -5 -6 -8 -12 -9 -20 -2 -7 6 -16 8 -19 4 -4 -3 -9 2 -13
11 -3 9 -11 16 -16 16 -6 0 -5 -6 2 -15 9 -10 9 -15 1 -15 -6 0 -11 -5 -11
-12 0 -6 3 -9 6 -5 4 3 15 -4 24 -16 17 -20 19 -20 25 -4 4 9 11 17 17 17 5 0
7 -4 4 -9 -3 -5 6 -21 19 -35 21 -23 25 -24 25 -9 0 15 4 14 20 -7 11 -14 20
-20 20 -15 0 6 -5 16 -12 23 -7 7 -9 12 -5 12 9 0 69 -41 80 -55 5 -5 5 1 1
15 -6 22 -5 23 9 12 13 -11 18 -9 31 10 15 21 15 24 1 34 -14 10 -13 13 2 25
13 11 15 11 9 1 -11 -18 21 -52 42 -45 12 5 11 2 -4 -14 -10 -11 -23 -17 -28
-12 -5 4 -19 -4 -32 -18 -32 -34 -31 -43 1 -13 14 13 28 20 32 16 4 -4 1 -11
-7 -16 -11 -7 -11 -10 -2 -10 7 0 15 7 18 15 4 8 10 12 15 9 5 -3 6 3 3 13 -4
13 0 11 17 -7 14 -17 23 -21 26 -12 3 6 9 12 14 12 6 0 7 -4 4 -10 -3 -5 -1
-10 4 -10 6 0 11 4 11 10 0 5 7 7 15 4 8 -4 15 -10 15 -16 0 -5 -4 -6 -10 -3
-5 3 -10 1 -10 -5 0 -7 6 -10 14 -7 21 8 28 -4 13 -22 -10 -14 -10 -14 3 -5 8
6 23 10 33 9 9 -2 17 1 17 7 0 6 -7 8 -15 5 -8 -4 -17 -2 -20 3 -4 6 -1 10 4
10 6 0 10 11 9 25 -2 24 -18 37 -18 15 0 -6 -12 -3 -27 6 -17 10 -21 11 -11 2
15 -13 13 -14 -21 -14 -28 0 -37 4 -38 18 -1 10 3 18 8 18 6 0 7 -4 4 -10 -3
-5 1 -10 9 -10 8 0 20 8 25 18 6 10 11 12 11 4 0 -7 4 -11 9 -8 5 4 11 1 13
-5 3 -9 9 -9 25 0 12 6 29 8 37 5 17 -7 22 -34 6 -34 -5 0 -9 5 -7 11 1 6 -3
13 -9 16 -6 2 -11 -3 -11 -12 0 -8 4 -15 9 -15 4 0 7 -6 5 -12 -1 -9 9 -13 31
-12 17 0 32 -4 32 -10 0 -6 5 -3 11 7 10 17 12 17 29 2 11 -10 25 -15 32 -12
9 4 8 6 -3 6 -17 1 -18 22 -1 61 8 18 11 20 11 8 1 -18 12 -23 24 -11 4 3 2
12 -5 20 -8 11 -7 12 6 7 10 -4 15 -12 13 -18 -3 -7 3 -27 13 -46 15 -29 20
-32 25 -17 5 12 11 15 20 7 6 -5 15 -7 18 -4 3 4 9 -6 13 -22 7 -28 7 -28 16
-5 7 19 11 21 23 11 13 -11 14 -10 9 3 -3 10 -1 14 8 13 28 -6 48 -18 42 -27
-3 -5 2 -6 11 -3 14 6 14 8 -1 19 -12 8 -14 14 -5 19 6 4 9 12 5 17 -3 5 -10
7 -15 3 -5 -3 -15 -1 -22 5 -8 6 -18 6 -27 1 -12 -8 -10 -10 9 -10 28 0 21
-12 -10 -17 -12 -2 -18 1 -14 7 3 5 1 10 -5 10 -7 0 -10 -7 -7 -15 4 -8 2 -17
-3 -20 -6 -4 -11 -1 -11 4 -1 6 -3 16 -4 21 -1 6 -3 13 -4 16 0 4 -8 1 -16 -6
-8 -7 -15 -9 -15 -5 0 4 -7 2 -15 -5 -9 -8 -15 -8 -15 -2 0 6 3 12 8 15 4 2 2
3 -3 1 -6 -1 -11 11 -10 26 0 16 4 26 8 23 5 -3 6 -12 3 -20 -4 -9 -1 -13 6
-10 7 2 12 10 10 16 -1 7 2 10 8 6 8 -5 8 -11 1 -19 -21 -26 3 -25 26 0 19 21
24 22 21 9 -2 -10 3 -20 11 -23 8 -3 11 0 7 7 -5 7 -1 9 10 4 13 -5 15 -3 9 8
-8 12 -6 12 8 0 11 -9 17 -10 17 -2 0 6 5 11 11 11 5 0 7 -5 3 -11 -4 -8 1 -9
17 -4 19 5 21 4 9 -4 -8 -6 -13 -11 -10 -12 3 0 16 -3 30 -5 19 -4 22 -2 12 8
-15 15 -16 28 -1 28 5 0 8 -4 5 -9 -3 -5 1 -14 9 -21 17 -14 20 -30 4 -30 -5
0 -7 6 -3 13 6 9 4 9 -8 -1 -13 -10 -17 -10 -20 0 -3 8 -7 6 -11 -6 -4 -9 -3
-15 2 -11 5 3 11 0 13 -6 5 -16 43 4 52 26 3 9 2 14 -3 11 -5 -3 -11 0 -14 8
-4 10 0 12 15 8 12 -3 19 -1 15 4 -3 6 4 11 16 11 20 2 20 1 5 -8 -25 -14 -24
-33 1 -20 10 6 22 7 26 3 4 -4 4 4 1 18 -7 24 -6 24 6 4 7 -12 19 -19 26 -17
6 3 12 0 12 -5 0 -5 -10 -9 -22 -8 -19 1 -23 -4 -21 -24 5 -51 7 -60 15 -60 5
0 6 11 3 23 -5 20 -3 23 15 22 12 -1 26 -8 32 -16 8 -11 9 -11 4 3 -3 10 -1
20 4 23 6 4 10 1 10 -5 0 -6 4 -8 10 -5 5 3 10 1 10 -6 0 -9 3 -9 14 0 11 10
17 8 26 -6 10 -15 11 -15 6 -1 -3 12 1 16 15 15 10 -1 19 -5 19 -11 0 -5 9 -1
20 9 11 10 22 16 25 13 3 -3 -1 -11 -10 -18 -8 -7 -15 -17 -15 -23 0 -5 9 2
21 17 11 14 25 23 30 20 6 -3 0 -14 -12 -25 -12 -10 -17 -19 -12 -19 6 0 16 6
22 14 13 15 51 18 51 4 0 -4 5 -8 11 -8 8 0 7 6 -2 16 -12 15 -11 16 8 10 12
-4 24 -2 28 4 3 5 13 10 22 10 11 0 9 -5 -8 -20 -13 -10 -20 -19 -16 -20 5 0
16 7 24 16 13 13 17 13 24 2 7 -10 9 -10 9 0 0 6 5 12 11 12 6 0 8 -9 4 -22
-5 -17 -4 -19 3 -9 15 21 62 23 63 3 0 -13 2 -12 9 4 8 21 30 42 30 29 0 -4
-5 -15 -10 -26 -8 -15 -7 -21 5 -25 8 -3 12 -11 8 -17 -4 -6 -1 -7 7 -2 10 6
10 10 -3 20 -18 13 -10 29 17 33 18 3 18 2 6 -15 -8 -10 -10 -15 -6 -11 5 4
15 3 22 -3 18 -15 38 -1 24 16 -9 11 -7 14 9 12 25 -2 35 -23 15 -31 -8 -3
-14 -10 -14 -16 0 -5 9 -2 19 7 16 13 18 21 10 36 -6 10 -8 21 -5 25 3 3 6 2
6 -1 0 -4 16 -1 35 7 21 9 35 11 35 5 0 -6 4 -8 10 -4 5 3 7 12 4 20 -5 13
-10 13 -35 -1 -16 -8 -29 -11 -29 -7 0 5 -5 1 -10 -7 -5 -8 -10 -10 -10 -4 0
5 7 19 15 30 12 16 14 16 9 2 -6 -17 -4 -17 22 -3 26 13 30 13 41 -2 15 -19
29 -11 17 9 -12 19 -14 39 -3 32 5 -3 7 -9 5 -12 -2 -4 4 -18 14 -32 17 -23
19 -23 43 -7 25 16 26 16 32 -4 5 -16 9 -18 15 -9 4 7 13 10 18 6 6 -4 18 6
27 21 9 15 14 20 11 11 -4 -13 4 -22 24 -33 17 -9 30 -12 30 -7 0 5 -10 14
-22 20 l-23 10 23 -1 c12 -1 25 -9 28 -19 6 -19 34 -25 34 -8 0 6 -4 10 -10
10 -5 0 -14 10 -20 22 -11 22 -10 22 4 4 9 -11 16 -16 16 -10 1 5 7 -2 15 -16
7 -14 17 -24 21 -23 15 3 22 28 13 47 -10 21 -10 21 5 2 9 -11 16 -16 16 -12
0 5 9 -2 21 -15 14 -17 19 -19 15 -7 -3 11 -1 15 8 12 8 -3 17 0 21 5 3 6 11
9 16 6 5 -4 9 -2 9 4 0 5 11 8 25 6 28 -3 31 4 13 25 -10 11 -9 11 6 0 18 -14
19 -13 13 3 -6 15 -4 16 13 7 11 -6 20 -13 20 -16 0 -3 -4 -3 -10 1 -5 3 -16
-8 -25 -25 -8 -16 -20 -30 -26 -30 -8 0 -7 5 1 15 9 10 9 15 1 15 -6 0 -11 -5
-11 -11 0 -5 -4 -8 -9 -4 -5 3 -12 1 -16 -5 -4 -6 -11 -7 -17 -4 -7 5 -8 2 -3
-6 6 -9 4 -11 -5 -5 -8 5 -11 4 -6 -3 4 -7 -1 -10 -14 -7 -14 3 -18 0 -13 -8
5 -9 3 -9 -8 0 -12 10 -18 10 -27 1 -7 -7 -12 -8 -12 -4 0 5 -7 3 -15 -4 -8
-7 -15 -9 -15 -4 0 5 -5 2 -11 -6 -9 -13 -10 -13 -6 1 4 13 -1 16 -24 14 -16
-1 -26 1 -24 5 3 5 -9 7 -27 6 -18 -2 -39 2 -47 8 -11 8 -13 8 -8 -1 5 -8 1
-11 -13 -8 -11 2 -20 0 -20 -6 0 -5 -4 -9 -10 -9 -5 0 -9 6 -7 13 1 6 -5 11
-13 10 -27 -3 -60 -12 -72 -19 -6 -4 -8 -3 -5 2 3 6 -3 11 -14 11 -10 1 -19
-3 -19 -8 0 -6 -4 -8 -8 -5 -15 9 -31 -9 -22 -24 8 -12 10 -12 10 4 0 16 2 16
21 -5 11 -13 18 -18 14 -11 -3 6 -1 13 4 13 6 1 17 2 24 3 6 1 17 -5 24 -14 8
-9 12 -11 13 -3 0 6 -4 15 -10 18 -5 3 -10 11 -10 17 0 6 8 4 18 -5 10 -10 22
-14 25 -10 9 9 57 13 56 5 -5 -34 16 -44 26 -13 5 16 17 19 45 11 3 -1 -4 -6
-15 -11 -19 -9 -18 -9 3 -5 15 3 27 -3 37 -17 8 -11 17 -18 20 -15 3 3 -6 17
-21 31 -24 24 -24 26 -5 24 12 -1 21 -4 21 -7 0 -3 7 -15 15 -26 15 -19 15
-19 8 1 -6 17 -5 18 10 7 8 -8 13 -21 10 -30 -4 -14 -3 -15 5 -2 8 10 8 18 0
27 -8 10 -6 13 5 13 8 0 18 -6 21 -12 3 -7 3 -2 -1 12 -5 21 -4 23 9 13 10 -9
18 -9 25 -2 7 7 13 7 17 1 3 -6 -2 -13 -13 -17 -11 -3 -22 -13 -25 -21 -3 -8
-2 -13 3 -9 5 3 11 2 14 -2 2 -5 2 -2 1 5 -2 7 8 18 21 24 14 6 25 15 25 21 0
5 6 7 14 4 7 -3 23 1 35 9 12 8 26 12 31 9 6 -4 9 -1 8 6 -2 6 3 14 11 17 10
3 12 0 7 -14 -6 -15 -5 -16 5 -7 9 9 9 16 1 25 -14 18 -2 36 21 32 20 -3 59
34 51 48 -8 12 10 10 23 -3 9 -9 11 -5 9 15 -4 33 -8 37 -26 26 -13 -8 -12
-10 3 -10 9 0 17 -4 17 -8 0 -4 -9 -8 -19 -8 -11 0 -17 4 -15 8 3 4 1 8 -5 8
-18 0 -22 -19 -6 -27 14 -8 14 -11 -3 -26 -18 -16 -19 -16 -31 10 -7 16 -10
25 -6 22 6 -6 27 10 82 62 13 12 20 26 17 31 -3 5 3 4 14 -3 12 -7 18 -17 15
-22 -3 -5 -9 -4 -13 3 -5 9 -9 9 -14 1 -4 -6 -4 -16 0 -23 5 -7 2 -8 -7 -3
-11 6 -12 5 -2 -5 10 -11 16 -9 32 11 18 22 18 25 3 43 -16 18 -16 18 5 8 12
-7 23 -15 25 -19 3 -5 3 -2 2 4 -2 7 2 13 9 13 9 0 8 3 -1 9 -11 7 -11 9 2 14
9 4 13 12 10 20 -6 15 51 79 62 69 4 -4 4 -1 0 6 -4 7 -3 18 2 25 5 7 19 38
31 70 l21 58 -3 2382 c-1 1310 -5 2393 -9 2406 -27 88 -92 175 -164 217 -57
33 -104 47 -209 59 -34 4 -35 5 -35 18 0 15 -392 16 -412 0 -30 -23 -42 -27
-35 -10 3 9 1 19 -5 23 -6 4 -8 3 -4 -4z m-1611 -161 c-2 -6 2 -11 9 -11 6 0
9 -2 6 -5 -3 -3 -17 1 -31 8 -28 15 -27 27 1 22 9 -1 16 -8 15 -14z m-86 -116
c-7 -7 -15 -11 -19 -8 -5 2 -8 -1 -8 -6 0 -16 -20 -13 -26 4 -10 26 14 46 41
33 18 -8 21 -13 12 -23z m3 -35 c-11 -21 -30 -27 -30 -9 0 5 4 8 9 5 5 -3 11
1 15 9 3 8 8 15 11 15 3 0 1 -9 -5 -20z m-60 -50 c0 -5 -5 -10 -11 -10 -5 0
-7 5 -4 10 3 6 8 10 11 10 2 0 4 -4 4 -10z m23 -113 c3 -8 -1 -14 -8 -14 -7 0
-11 6 -8 14 3 7 6 13 8 13 2 0 5 -6 8 -13z m-33 -52 c-20 -21 -21 -27 -9 -42
8 -9 9 -14 3 -10 -13 8 -13 -81 0 -102 6 -10 5 -12 -2 -7 -7 4 -12 2 -12 -4 0
-21 -25 -4 -26 18 -1 12 2 19 7 17 16 -10 21 17 6 33 -13 15 -14 20 -1 36 10
14 11 23 3 33 -9 10 -8 13 2 13 11 0 11 2 -1 10 -8 5 -11 12 -7 17 5 4 12 2
16 -5 6 -10 11 -10 21 3 7 8 15 15 18 15 3 0 -5 -11 -18 -25z m18 -125 c-7
-10 -14 -17 -17 -15 -4 4 18 35 25 35 2 0 -1 -9 -8 -20z m3 -67 c13 -17 13
-17 -6 -3 -11 8 -22 16 -24 17 -2 2 0 3 6 3 6 0 17 -8 24 -17z m-41 -4 c0 -5
4 -8 8 -5 5 3 9 -1 9 -9 0 -14 -10 -19 -29 -16 -10 1 -10 -13 -1 -22 3 -4 12
-2 20 5 11 8 12 7 7 -6 -3 -9 -10 -16 -16 -16 -5 0 -6 -6 -2 -12 4 -7 -2 -4
-12 7 -10 11 -26 26 -34 34 -13 12 -13 13 2 8 10 -3 20 -2 23 4 4 5 11 7 16 4
13 -9 11 9 -3 23 -9 9 -9 12 0 12 7 0 12 -5 12 -11z m45 -79 c3 -6 -1 -7 -9
-4 -18 7 -21 14 -7 14 6 0 13 -4 16 -10z m-78 -55 c0 -7 -8 -10 -19 -7 -20 5
-17 19 5 19 7 0 14 -6 14 -12z m-12 -54 c3 -5 1 -12 -4 -15 -5 -3 -11 1 -15 9
-6 16 9 21 19 6z m76 -64 c-10 -9 -11 -8 -5 6 3 10 9 15 12 12 3 -3 0 -11 -7
-18z m22 -122 c-3 -9 -8 -14 -10 -11 -3 3 -2 9 2 15 9 16 15 13 8 -4z m-27 -7
c4 -6 3 -8 -3 -5 -6 4 -13 0 -17 -8 -3 -8 -1 -15 4 -15 6 0 10 -5 10 -11 0 -8
-4 -8 -15 1 -11 9 -12 17 -4 31 11 22 15 23 25 7z m-56 -100 c0 -19 -16 -5
-17 14 -2 18 0 20 7 8 5 -8 10 -18 10 -22z m1 -57 c7 11 9 11 9 1 0 -7 5 -10
10 -7 6 3 10 2 10 -4 0 -5 -5 -13 -12 -17 -8 -5 -6 -11 6 -19 15 -12 15 -13
-1 -20 -17 -6 -17 -7 2 -22 16 -13 17 -15 3 -10 -10 4 -18 5 -18 3 0 -3 -3
-12 -7 -21 -5 -15 -3 -16 15 -6 15 8 22 8 22 1 0 -5 -7 -10 -15 -10 -13 0 -14
-4 -5 -21 14 -26 6 -36 -15 -19 -11 9 -15 9 -15 1 0 -6 11 -16 25 -21 28 -11
35 -22 8 -14 -12 4 -10 -1 7 -16 l25 -22 -27 16 c-16 9 -28 12 -28 6 0 -6 7
-13 15 -16 13 -5 13 -8 0 -21 -8 -8 -15 -20 -15 -26 0 -7 7 -3 15 7 8 11 15
15 15 10 0 -6 -3 -14 -7 -18 -12 -12 -14 -48 -2 -41 6 4 10 1 8 -6 -3 -28 1
-40 13 -33 7 4 8 3 4 -5 -4 -6 -12 -9 -17 -6 -11 7 -11 3 -3 -19 3 -9 9 -14
13 -12 4 3 7 -4 7 -14 0 -11 -2 -17 -5 -15 -2 3 -10 0 -18 -6 -15 -13 -18 -53
-3 -44 6 3 10 1 10 -4 0 -15 -15 -14 -28 2 -15 17 -15 29 -2 37 9 5 9 9 1 14
-6 4 -11 2 -11 -4 0 -6 -5 -8 -12 -4 -9 5 -9 2 1 -9 8 -10 9 -17 3 -17 -22 0
-23 22 -2 42 12 11 19 27 16 35 -3 8 -1 23 4 34 13 23 -5 63 -23 53 -9 -5 -9
-4 0 6 9 9 9 17 2 26 -7 9 -5 14 10 19 20 6 20 7 3 33 -9 14 -11 23 -4 19 6
-5 12 -4 12 2 0 5 -9 13 -20 16 -24 7 -24 13 -5 39 8 10 12 22 10 27 -3 4 -1
11 5 14 8 5 8 11 0 20 -8 9 -7 17 3 27 12 12 13 17 1 33 -8 10 -14 24 -13 29
0 6 3 5 6 -3 5 -11 7 -11 14 0z m66 -11 c-19 -25 -20 -26 -14 -8 3 9 1 19 -6
21 -7 3 -2 4 10 4 18 -1 20 -4 10 -17z m0 -65 c0 -8 -4 -15 -9 -15 -10 0 -11
14 -1 23 9 10 10 9 10 -8z m17 -91 c3 -8 2 -12 -4 -9 -6 3 -10 10 -10 16 0 14
7 11 14 -7z m6 -108 c0 -3 -4 -8 -10 -11 -5 -3 -10 -1 -10 4 0 6 5 11 10 11 6
0 10 -2 10 -4z m-42 -28 c-2 -7 2 -12 7 -11 6 1 11 -6 11 -16 0 -10 -6 -18
-12 -18 -7 0 -10 6 -7 13 2 6 0 15 -6 19 -14 8 -14 25 -1 25 6 0 9 -6 8 -12z
m2 -152 c0 -2 -7 -7 -16 -10 -8 -3 -12 -2 -9 4 6 10 25 14 25 6z m16 -38 c0
-10 -3 -18 -7 -18 -4 0 -9 8 -11 18 -3 10 0 19 6 19 7 0 12 -9 12 -19z m-85
-65 c-12 -20 -14 -14 -5 12 4 9 9 14 11 11 3 -2 0 -13 -6 -23z m129 -17 c0 -3
-4 -8 -10 -11 -5 -3 -10 -1 -10 4 0 6 5 11 10 11 6 0 10 -2 10 -4z m-67 -31
c-3 -9 -8 -14 -10 -11 -3 3 -2 9 2 15 9 16 15 13 8 -4z m-66 -24 c-1 -11 -6
-17 -14 -14 -10 4 -11 9 -2 19 15 19 18 18 16 -5z m0 -46 c0 -8 -4 -12 -9 -9
-5 3 -6 10 -3 15 9 13 12 11 12 -6z m113 -85 c0 -5 -5 -10 -11 -10 -5 0 -7 5
-4 10 3 6 8 10 11 10 2 0 4 -4 4 -10z m20 -54 c0 -2 -7 -7 -16 -10 -8 -3 -12
-2 -9 4 6 10 25 14 25 6z m0 -46 c0 -5 -5 -10 -11 -10 -5 0 -7 5 -4 10 3 6 8
10 11 10 2 0 4 -4 4 -10z m-39 -57 c13 -16 12 -17 -3 -4 -10 7 -18 15 -18 17
0 8 8 3 21 -13z m-46 -24 c8 14 25 14 25 0 0 -5 -4 -7 -10 -4 -5 3 -10 1 -10
-5 0 -6 -11 -8 -26 -6 -34 7 -42 15 -24 26 10 7 19 5 27 -6 7 -10 13 -11 18
-5z m45 -33 c0 -3 -4 -8 -10 -11 -5 -3 -10 -1 -10 4 0 6 5 11 10 11 6 0 10 -2
10 -4z m35 -6 c3 -5 1 -10 -4 -10 -6 0 -11 5 -11 10 0 6 2 10 4 10 3 0 8 -4
11 -10z m-121 -45 c-4 -8 -10 -12 -15 -9 -11 6 -2 24 11 24 5 0 7 -7 4 -15z
m81 -15 c3 -5 1 -10 -4 -10 -6 0 -11 5 -11 10 0 6 2 10 4 10 3 0 8 -4 11 -10z
m-75 -14 c0 -11 -19 -15 -25 -6 -3 5 1 10 9 10 9 0 16 -2 16 -4z m120 -61 c0
-7 -30 -13 -34 -7 -3 4 4 9 15 9 10 1 19 0 19 -2z m-150 -30 c-7 -9 -15 -13
-19 -10 -3 3 1 10 9 15 21 14 24 12 10 -5z m61 -63 c-11 -10 -13 -15 -4 -18 8
-4 2 -15 -17 -34 -23 -22 -26 -29 -14 -34 9 -3 12 -1 9 4 -3 6 -4 10 -1 10 2
0 11 3 20 6 9 3 16 1 16 -6 0 -6 -5 -8 -11 -5 -6 4 -9 0 -7 -11 2 -13 -3 -19
-17 -19 -11 0 -20 -5 -20 -12 0 -6 -3 -14 -6 -17 -3 -3 -5 13 -4 37 1 27 5 41
13 40 7 -2 12 1 12 6 0 13 -30 22 -43 14 -6 -4 -1 7 11 24 12 17 18 33 14 37
-16 17 23 23 43 8 20 -15 21 -18 6 -30z m39 -8 c0 -8 -19 -13 -24 -6 -3 5 1 9
9 9 8 0 15 -2 15 -3z m-13 -38 c0 -8 -6 -12 -15 -9 -11 5 -11 7 0 14 7 5 13 9
14 9 0 0 1 -6 1 -14z m37 -12 c3 -8 2 -12 -4 -9 -6 3 -10 10 -10 16 0 14 7 11
14 -7z m-28 -36 c4 -7 3 -8 -4 -4 -7 4 -12 2 -12 -5 0 -7 -3 -10 -6 -6 -6 5 3
27 11 27 2 0 7 -5 11 -12z m30 -23 c-1 -8 -5 -17 -8 -21 -5 -4 -4 16 1 34 3 9
9 -1 7 -13z m-56 -20 c0 -8 -2 -15 -4 -15 -2 0 -6 7 -10 15 -3 8 -1 15 4 15 6
0 10 -7 10 -15z m40 -29 c0 -3 -4 -8 -10 -11 -5 -3 -10 -1 -10 4 0 6 5 11 10
11 6 0 10 -2 10 -4z m35 -5 c3 -5 2 -12 -3 -15 -5 -3 -9 1 -9 9 0 17 3 19 12
6z m-35 -61 c0 -4 -7 -7 -15 -6 -23 3 -26 12 -5 13 11 1 20 -2 20 -7z m-40
-21 c0 -6 -4 -7 -10 -4 -5 3 -10 11 -10 16 0 6 5 7 10 4 6 -3 10 -11 10 -16z
m31 -26 c12 -16 12 -17 -2 -6 -9 7 -20 9 -24 5 -5 -4 -5 -1 -1 6 9 16 11 15
27 -5z m4 -33 c3 -5 1 -10 -4 -10 -6 0 -11 5 -11 10 0 6 2 10 4 10 3 0 8 -4
11 -10z m-62 -55 c37 -26 46 -37 26 -32 -6 1 -14 -4 -17 -12 -3 -8 0 -11 7 -7
6 4 11 2 11 -3 0 -6 -4 -11 -9 -11 -17 0 -23 20 -11 35 10 12 7 14 -17 12 -23
-2 -28 2 -26 18 1 18 0 18 -11 3 -7 -10 -17 -14 -25 -8 -10 6 -9 10 5 19 26
14 24 14 67 -14z m67 -1 c0 -8 -19 -13 -24 -6 -3 5 1 9 9 9 8 0 15 -2 15 -3z
m13 -119 c-3 -9 -8 -14 -10 -11 -3 3 -2 9 2 15 9 16 15 13 8 -4z m-27 -87 c5
-7 3 -8 -6 -3 -10 6 -12 4 -6 -11 5 -14 4 -16 -5 -7 -6 6 -8 16 -5 22 9 14 13
14 22 -1z m24 -72 c0 -2 -8 -10 -17 -17 -16 -13 -17 -12 -4 4 13 16 21 21 21
13z m-10 -87 c0 -5 -5 -9 -12 -9 -6 0 -8 3 -5 7 4 3 1 13 -6 22 -11 14 -10 14
6 2 9 -7 17 -17 17 -22z m-30 -74 c-6 -8 -8 -20 -4 -27 6 -10 3 -9 -9 1 -18
14 -24 37 -8 26 5 -3 12 -1 16 5 3 5 9 10 12 10 3 0 0 -7 -7 -15z m-70 -175
c-12 -13 -16 -14 -23 -3 -5 8 -4 20 2 27 6 7 10 15 8 17 -1 2 5 -3 13 -11 14
-13 14 -16 0 -30z m90 15 c-7 -8 -17 -15 -23 -15 -6 0 -2 7 9 15 25 19 30 19
14 0z m-30 -29 c0 -3 -4 -8 -10 -11 -5 -3 -10 -1 -10 4 0 6 5 11 10 11 6 0 10
-2 10 -4z m16 -38 c5 -7 3 -8 -6 -3 -10 6 -12 4 -7 -8 4 -11 2 -14 -9 -10 -11
4 -12 9 -3 19 14 17 16 17 25 2z m19 -47 c3 -5 2 -12 -3 -15 -5 -3 -9 1 -9 9
0 17 3 19 12 6z m-21 -73 c-3 -5 -10 -5 -16 -2 -8 5 -9 1 -4 -12 5 -14 4 -16
-5 -7 -14 14 -6 30 15 30 8 0 13 -4 10 -9z m-94 -13 c-7 -9 -15 -13 -19 -10
-3 3 1 10 9 15 21 14 24 12 10 -5z m6 -56 c0 -9 -6 -15 -13 -12 -7 3 -13 11
-13 17 0 7 6 13 13 13 7 0 13 -8 13 -18z m99 -89 c3 -6 -1 -7 -9 -4 -18 7 -21
14 -7 14 6 0 13 -4 16 -10z m-110 -20 c3 -5 -1 -10 -9 -10 -9 0 -16 5 -16 10
0 6 4 10 9 10 6 0 13 -4 16 -10z m66 -25 c30 -14 31 -15 7 -10 -21 4 -28 2
-28 -10 0 -10 5 -13 13 -9 8 5 8 2 -2 -9 -10 -13 -11 -20 -2 -30 6 -8 8 -17 4
-20 -3 -4 2 -7 13 -8 18 0 18 -1 -1 -8 -11 -5 -26 -6 -32 -4 -7 3 -13 -2 -13
-12 0 -9 4 -14 8 -11 5 3 9 0 9 -7 0 -7 4 -20 8 -29 5 -13 3 -18 -8 -18 -9 0
-18 -4 -22 -9 -7 -12 33 -5 49 8 9 8 13 7 13 -4 0 -8 -5 -11 -10 -8 -6 4 -8 0
-4 -10 3 -10 2 -17 -3 -17 -6 0 -10 4 -10 8 0 5 -7 9 -15 9 -14 0 -20 -11 -15
-32 1 -5 -2 -6 -7 -2 -4 5 -9 13 -9 18 -1 5 -2 14 -3 20 0 5 -5 7 -11 4 -21
-13 -9 8 16 28 24 18 25 22 10 32 -8 7 -12 15 -8 19 4 4 -2 14 -12 22 -11 8
-15 14 -9 14 7 0 15 -5 19 -11 4 -8 9 -7 15 2 5 8 2 20 -7 30 -13 14 -13 18 1
29 8 7 12 16 9 21 -3 5 1 9 8 9 9 0 9 3 -2 10 -23 15 -6 12 31 -5z m33 -56 c3
-3 -4 -5 -14 -6 -11 -1 -20 2 -20 7 0 8 25 8 34 -1z m4 -44 c-3 -3 -9 2 -12
12 -6 14 -5 15 5 6 7 -7 10 -15 7 -18z m-22 -37 c4 -7 3 -8 -4 -4 -7 4 -12 3
-12 -3 0 -5 5 -12 10 -14 6 -3 5 -4 -2 -3 -16 3 -24 36 -9 36 5 0 13 -5 17
-12z m21 -170 c4 -28 -6 -18 -12 12 -2 12 -1 20 2 16 4 -4 8 -16 10 -28z m-32
-28 c3 -5 2 -10 -4 -10 -5 0 -13 5 -16 10 -3 6 -2 10 4 10 5 0 13 -4 16 -10z
m65 -76 c0 -8 -19 -13 -24 -6 -3 5 1 9 9 9 8 0 15 -2 15 -3z m0 -84 c8 -5 11
-10 5 -10 -5 0 -17 5 -25 10 -8 5 -10 10 -5 10 6 0 17 -5 25 -10z m10 -74 c0
-2 -7 -7 -16 -10 -8 -3 -12 -2 -9 4 6 10 25 14 25 6z m-7 -61 c-3 -9 -8 -14
-10 -11 -3 3 -2 9 2 15 9 16 15 13 8 -4z m-27 -27 c4 -7 3 -8 -4 -4 -7 4 -12
2 -12 -5 0 -7 -3 -10 -6 -6 -6 5 3 27 11 27 2 0 7 -5 11 -12z m34 -43 c0 -5
-5 -3 -10 5 -5 8 -10 20 -10 25 0 6 5 3 10 -5 5 -8 10 -19 10 -25z m-10 -70
c0 -1 -10 -10 -22 -21 -14 -12 -18 -13 -10 -3 6 9 10 18 7 21 -3 2 2 5 10 5 8
0 15 -1 15 -2z m-5 -45 c-3 -5 -12 -10 -18 -10 -7 0 -6 4 3 10 19 12 23 12 15
0z m-25 -40 c0 -5 -2 -10 -4 -10 -3 0 -8 5 -11 10 -3 6 -1 10 4 10 6 0 11 -4
11 -10z m15 -60 c3 -5 1 -10 -4 -10 -6 0 -11 5 -11 10 0 6 2 10 4 10 3 0 8 -4
11 -10z m-21 -16 c3 -8 2 -12 -4 -9 -6 3 -10 10 -10 16 0 14 7 11 14 -7z m-69
-48 c0 -13 -3 -22 -7 -20 -4 2 -9 0 -13 -6 -3 -5 -13 -10 -21 -10 -12 0 -12 4
-4 20 6 11 15 18 19 15 5 -3 11 2 15 10 8 21 11 19 11 -9z m105 11 c0 -2 -9
-12 -19 -21 -14 -13 -21 -14 -27 -5 -4 7 -3 10 3 6 6 -4 16 0 23 8 12 14 20
19 20 12z m-90 -83 c0 -8 -4 -14 -9 -14 -6 0 -9 9 -8 19 1 22 17 18 17 -5z
m44 -38 c-3 -9 -10 -16 -15 -16 -5 0 -4 9 3 20 14 22 21 20 12 -4z m31 15 c3
-5 2 -12 -3 -15 -5 -3 -9 1 -9 9 0 17 3 19 12 6z m20 -161 c3 -5 1 -10 -4 -10
-6 0 -11 5 -11 10 0 6 2 10 4 10 3 0 8 -4 11 -10z m38 -175 c4 3 5 2 2 -2 -3
-4 -16 -8 -28 -9 -12 -2 -16 0 -9 3 10 4 10 8 0 21 -10 14 -9 14 8 -1 11 -9
24 -15 27 -12z m-54 3 c-3 -27 1 -39 13 -32 6 4 8 3 4 -4 -3 -6 4 -18 16 -26
12 -9 17 -16 11 -16 -7 0 -15 5 -18 11 -4 6 -13 8 -21 5 -9 -3 -11 0 -7 11 5
12 2 15 -9 11 -19 -8 -43 7 -34 21 4 6 12 9 17 6 5 -4 12 1 15 9 7 19 16 21
13 4z m2487 -100 c-9 -5 -13 -14 -9 -21 4 -7 0 -6 -10 2 -18 14 -23 26 -8 17
5 -3 12 1 15 10 3 8 11 12 17 8 8 -5 6 -10 -5 -16z m-2409 -4 c-3 -3 -12 -4
-19 -1 -8 3 -5 6 6 6 11 1 17 -2 13 -5z m73 -69 c11 -13 10 -14 -4 -9 -9 3
-16 10 -16 15 0 13 6 11 20 -6z m50 -13 c0 -5 -7 -9 -15 -9 -8 0 -12 4 -9 9 3
4 9 8 15 8 5 0 9 -4 9 -8z m20 -22 c0 -5 -5 -10 -11 -10 -5 0 -7 5 -4 10 3 6
8 10 11 10 2 0 4 -4 4 -10z m35 -13 c-7 -17 -48 -28 -65 -17 -7 4 0 8 16 8 16
0 33 7 38 15 12 19 19 16 11 -6z m2050 13 c3 -6 -1 -7 -9 -4 -18 7 -21 14 -7
14 6 0 13 -4 16 -10z m-2151 -35 c-4 -8 -10 -13 -15 -10 -4 3 -6 12 -3 20 4 8
10 13 15 10 4 -3 6 -12 3 -20z m156 19 c0 -8 -19 -13 -24 -6 -3 5 1 9 9 9 8 0
15 -2 15 -3z m1811 -21 c13 -16 12 -17 -3 -4 -17 13 -22 21 -14 21 2 0 10 -8
17 -17z m-1836 -3 c9 -14 42 -12 49 3 3 6 4 3 3 -8 -1 -11 3 -19 10 -18 6 1
10 -5 9 -15 -2 -9 -6 -16 -9 -14 -4 1 -7 5 -6 8 1 9 -23 24 -39 24 -7 0 -10
-5 -7 -10 4 -6 11 -8 16 -5 5 4 9 2 9 -4 0 -5 -4 -13 -10 -16 -5 -3 -10 -1
-10 4 0 6 -3 10 -7 9 -5 -2 -9 1 -10 6 -2 14 -26 25 -38 18 -20 -13 -43 -11
-55 3 -11 13 -8 15 23 10 20 -4 38 -1 42 5 8 13 22 13 30 0z m154 -13 c0 -8
-2 -8 -6 1 -4 10 -8 10 -21 0 -15 -12 -16 -11 -3 4 14 19 32 15 30 -5z m72 6
c13 -16 12 -17 -3 -4 -10 7 -18 15 -18 17 0 8 8 3 21 -13z m1144 7 c3 -5 1
-10 -4 -10 -6 0 -11 5 -11 10 0 6 2 10 4 10 3 0 8 -4 11 -10z m242 -5 c0 -8
-4 -12 -9 -9 -5 3 -6 10 -3 15 9 13 12 11 12 -6z m359 3 c4 -7 4 -10 -1 -6 -4
4 -15 2 -24 -5 -14 -11 -14 -10 -2 6 16 20 18 21 27 5z m-1779 -13 c0 -8 -4
-12 -9 -9 -5 3 -6 10 -3 15 9 13 12 11 12 -6z m83 1 c0 -2 -7 -7 -16 -10 -8
-3 -12 -2 -9 4 6 10 25 14 25 6z m60 0 c0 -3 -4 -8 -10 -11 -5 -3 -10 -1 -10
4 0 6 5 11 10 11 6 0 10 -2 10 -4z m54 -8 c-3 -4 -11 -5 -19 -1 -21 7 -19 12
4 10 11 0 18 -5 15 -9z m306 8 c0 -2 -7 -7 -16 -10 -8 -3 -12 -2 -9 4 6 10 25
14 25 6z m60 0 c0 -2 -7 -7 -16 -10 -8 -3 -12 -2 -9 4 6 10 25 14 25 6z m93
-11 c-3 -9 -8 -14 -10 -11 -3 3 -2 9 2 15 9 16 15 13 8 -4z m87 -6 c0 -6 7
-17 15 -25 14 -15 20 -11 16 10 -1 5 4 4 12 -3 15 -12 17 -34 4 -47 -4 -4 -7
1 -7 12 0 15 -2 16 -9 5 -12 -18 -39 -23 -61 -11 -10 5 -20 6 -24 2 -12 -11
-63 -9 -63 3 0 7 6 12 14 12 7 0 13 -5 13 -11 0 -6 5 -4 10 4 5 8 10 11 10 6
0 -4 11 -1 24 7 26 18 37 13 30 -11 -5 -16 -5 -16 5 0 8 11 8 25 1 43 -7 17
-7 24 0 20 6 -3 10 -11 10 -16z m144 13 c2 -4 -5 -9 -17 -9 -17 -2 -19 0 -7 7
18 12 18 12 24 2z m50 -4 c-4 -7 -14 -21 -22 -30 -14 -17 -4 -26 12 -11 3 4
15 8 26 10 15 2 19 -2 17 -19 -4 -23 -27 -38 -27 -17 0 8 -6 7 -18 -4 -16 -15
-21 -15 -39 -2 -11 8 -23 11 -27 7 -4 -3 -4 2 0 11 4 10 12 16 20 13 15 -6 37
17 26 29 -4 5 -2 5 4 2 7 -4 14 0 18 8 3 8 8 15 11 15 4 0 3 -6 -1 -12z m188
-6 c-7 -2 -9 -9 -5 -15 3 -7 2 -8 -2 -4 -16 14 -14 36 3 29 10 -4 12 -7 4 -10z
m202 10 c3 -5 -1 -9 -9 -9 -8 0 -12 4 -9 9 3 4 7 8 9 8 2 0 6 -4 9 -8z m292
-1 c-3 -5 1 -14 9 -21 8 -7 15 -18 15 -24 0 -6 -9 0 -19 14 -17 22 -19 40 -5
40 3 0 3 -4 0 -9z m62 -16 c-3 -3 -9 2 -12 12 -6 14 -5 15 5 6 7 -7 10 -15 7
-18z m-1468 -4 c-5 -11 -7 -28 -3 -38 6 -15 5 -16 -9 -5 -12 10 -18 10 -23 1
-6 -8 -10 -7 -16 2 -5 8 -9 9 -9 4 0 -6 -12 -11 -27 -12 -27 -2 -27 -2 7 16
19 9 34 23 32 30 -1 7 2 10 8 6 6 -3 8 -11 5 -16 -4 -5 -2 -9 4 -9 6 0 15 9
21 20 6 11 13 20 16 20 2 0 0 -9 -6 -19z m1005 9 c-3 -5 -12 -10 -18 -10 -7 0
-6 4 3 10 19 12 23 12 15 0z m72 4 c-3 -3 -12 -4 -19 -1 -8 3 -5 6 6 6 11 1
17 -2 13 -5z m-1146 -27 c-10 -9 -11 -8 -5 6 3 10 9 15 12 12 3 -3 0 -11 -7
-18z m559 12 c0 -4 -7 -10 -16 -13 -8 -3 -13 -2 -9 3 3 5 -1 11 -7 14 -7 3 -3
4 10 4 12 -1 22 -4 22 -8z m285 1 c3 -5 11 -10 16 -10 6 0 8 4 5 8 -2 4 6 8
19 8 13 0 22 -3 19 -7 -2 -4 3 -12 12 -19 11 -10 18 -10 26 -2 8 8 19 7 40 -4
16 -8 33 -12 38 -9 12 8 13 -5 1 -23 -6 -11 -10 -10 -15 3 -5 14 -9 15 -22 4
-19 -15 -64 -21 -64 -8 0 6 5 7 12 3 7 -4 8 -3 4 5 -5 7 -13 8 -19 4 -24 -17
-81 1 -73 23 3 7 -3 18 -12 23 -9 6 -12 11 -5 11 6 0 15 -4 18 -10z m100 0
c-3 -5 -12 -10 -18 -10 -7 0 -6 4 3 10 19 12 23 12 15 0z m88 -11 c-6 -6 -19
-9 -29 -6 -16 4 -15 5 4 6 12 0 22 6 22 13 0 6 3 8 7 5 4 -4 2 -12 -4 -18z
m76 -2 c0 -9 -2 -8 -6 1 -2 6 -10 9 -15 6 -7 -4 -8 -2 -4 5 9 13 26 5 25 -12z
m171 11 c0 -4 -2 -8 -4 -8 -2 0 -11 -3 -19 -6 -8 -3 -17 1 -20 8 -3 10 3 14
19 14 13 0 24 -4 24 -8z m37 -10 c-3 -8 -6 -5 -6 6 -1 11 2 17 5 13 3 -3 4
-12 1 -19z m31 -3 c-3 -3 -9 2 -12 12 -6 14 -5 15 5 6 7 -7 10 -15 7 -18z
m-638 -3 c0 -8 -32 -42 -40 -42 -4 0 -7 7 -7 15 0 9 6 14 13 11 8 -3 16 -1 19
4 4 6 -1 10 -9 10 -8 0 -17 4 -20 9 -3 4 6 6 19 3 14 -2 25 -7 25 -10z m37 12
c-3 -3 -12 -4 -19 -1 -8 3 -5 6 6 6 11 1 17 -2 13 -5z m836 -1 c-7 -2 -19 -2
-25 0 -7 3 -2 5 12 5 14 0 19 -2 13 -5z m-483 -33 c0 -3 -5 -12 -10 -20 -8
-12 -10 -12 -10 -1 0 11 -3 11 -15 1 -8 -6 -19 -9 -24 -6 -11 7 -3 37 12 48
10 6 47 -11 47 -22z m-1170 -1 c0 -15 -18 -19 -23 -6 -3 8 1 14 9 14 8 0 14
-4 14 -8z m395 1 c-3 -5 -12 -10 -18 -10 -7 0 -6 4 3 10 19 12 23 12 15 0z
m1300 -16 c-23 -17 -32 -10 -15 11 7 8 17 12 23 8 6 -4 3 -11 -8 -19z m-355
-9 c-7 -8 -17 -12 -22 -9 -6 4 -5 10 3 15 22 14 33 10 19 -6z m-91 -16 c-16
-10 -23 -4 -14 10 3 6 11 8 17 5 6 -4 5 -9 -3 -15z m164 4 c-3 -7 -8 -13 -12
-13 -4 0 -8 6 -8 13 0 8 6 14 13 14 7 0 10 -6 7 -14z m-278 -13 c3 -5 2 -10
-4 -10 -5 0 -13 5 -16 10 -3 6 -2 10 4 10 5 0 13 -4 16 -10z"/>
<path d="M2059 5797 c0 -1 -2 -10 -4 -20 -3 -15 -1 -16 13 -5 9 7 18 13 20 14
2 1 -4 4 -13 7 -8 4 -15 5 -16 4z"/>
<path d="M1995 5450 c-3 -5 -1 -10 4 -10 6 0 11 5 11 10 0 6 -2 10 -4 10 -3 0
-8 -4 -11 -10z"/>
<path d="M1990 5369 c0 -5 5 -7 10 -4 6 3 10 8 10 11 0 2 -4 4 -10 4 -5 0 -10
-5 -10 -11z"/>
<path d="M1981 4726 c-9 -11 -9 -16 1 -22 7 -4 10 -4 6 1 -4 4 -3 14 3 22 6 7
9 13 6 13 -2 0 -10 -6 -16 -14z"/>
<path d="M1961 4638 c-13 -20 -12 -22 1 -11 11 10 17 10 27 0 11 -10 11 -8 2
11 -6 12 -13 22 -14 22 -1 0 -8 -10 -16 -22z"/>
<path d="M1988 4428 c-8 -23 -3 -68 7 -67 6 0 8 8 7 17 -2 9 -4 27 -4 40 0 25
-4 28 -10 10z"/>
<path d="M1975 3601 c5 -15 4 -21 -3 -17 -6 3 -14 1 -18 -5 -4 -8 -3 -9 4 -5
7 4 12 2 12 -3 0 -6 -6 -11 -12 -11 -9 0 -8 -3 2 -9 16 -11 33 -4 24 10 -3 5
-1 16 5 23 8 10 7 17 -5 27 -15 12 -16 11 -9 -10z"/>
<path d="M1956 3212 c-3 -5 1 -9 9 -9 8 0 12 4 9 9 -3 4 -7 8 -9 8 -2 0 -6 -4
-9 -8z"/>
<path d="M1946 2181 c-3 -5 1 -14 9 -21 8 -7 13 -16 10 -20 -3 -5 -1 -11 4
-14 13 -8 8 19 -7 37 -10 12 -10 16 0 20 9 4 9 6 1 6 -6 1 -14 -3 -17 -8z"/>
<path d="M1939 2043 c-13 -17 -13 -17 6 -3 11 8 22 16 24 17 2 2 0 3 -6 3 -6
0 -17 -8 -24 -17z"/>
<path d="M2016 788 c3 -5 10 -6 15 -3 13 9 11 12 -6 12 -8 0 -12 -4 -9 -9z"/>
<path d="M2310 566 c0 -2 7 -7 16 -10 8 -3 12 -2 9 4 -6 10 -25 14 -25 6z"/>
<path d="M3275 490 c3 -5 8 -10 11 -10 2 0 4 5 4 10 0 6 -5 10 -11 10 -5 0 -7
-4 -4 -10z"/>
<path d="M3443 486 c-18 -21 -18 -21 3 -4 14 12 24 14 30 8 7 -7 11 -6 11 3 0
20 -25 16 -44 -7z"/>
<path d="M3406 488 c3 -5 10 -6 15 -3 13 9 11 12 -6 12 -8 0 -12 -4 -9 -9z"/>
<path d="M3544 515 c-4 -8 -11 -12 -18 -8 -6 4 -5 -1 3 -10 13 -17 36 -14 26
4 -3 5 1 6 9 3 9 -3 13 -11 9 -17 -4 -6 -1 -7 6 -3 9 6 8 13 -5 27 -21 23 -23
23 -30 4z"/>
<path d="M3615 501 c-6 -11 20 -33 28 -24 4 3 7 10 7 14 0 11 -29 19 -35 10z"/>
<path d="M3725 500 c-3 -5 -3 -10 2 -10 4 0 1 -5 -7 -10 -9 -6 -10 -10 -3 -10
6 0 15 5 18 10 4 6 12 7 18 3 7 -4 6 0 -2 10 -16 20 -18 20 -26 7z"/>
<path d="M2315 6030 c3 -5 8 -10 11 -10 2 0 4 5 4 10 0 6 -5 10 -11 10 -5 0
-7 -4 -4 -10z"/>
<path d="M2165 5949 c-4 -6 -5 -12 -2 -15 2 -3 7 2 10 11 7 17 1 20 -8 4z"/>
<path d="M2195 5950 c3 -5 8 -10 11 -10 2 0 4 5 4 10 0 6 -5 10 -11 10 -5 0
-7 -4 -4 -10z"/>
<path d="M2084 5884 c-18 -14 -18 -15 4 -4 12 6 22 13 22 15 0 8 -5 6 -26 -11z"/>
<path d="M2045 5850 c-3 -5 -1 -10 4 -10 6 0 11 5 11 10 0 6 -2 10 -4 10 -3 0
-8 -4 -11 -10z"/>
<path d="M2100 5820 c0 -5 5 -10 11 -10 5 0 7 5 4 10 -3 6 -8 10 -11 10 -2 0
-4 -4 -4 -10z"/>
<path d="M1973 5695 c0 -7 6 -11 14 -8 7 3 13 6 13 8 0 2 -6 5 -13 8 -8 3 -14
-1 -14 -8z"/>
<path d="M1950 5649 c0 -5 5 -7 10 -4 6 3 10 8 10 11 0 2 -4 4 -10 4 -5 0 -10
-5 -10 -11z"/>
<path d="M1935 5499 c-4 -6 -5 -12 -2 -15 2 -3 7 2 10 11 7 17 1 20 -8 4z"/>
<path d="M1966 5491 c4 -16 3 -21 -5 -17 -6 4 -11 2 -11 -3 0 -6 4 -11 9 -11
17 0 22 19 11 37 -9 15 -10 14 -4 -6z"/>
<path d="M1895 5490 c-3 -5 -1 -10 4 -10 6 0 11 5 11 10 0 6 -2 10 -4 10 -3 0
-8 -4 -11 -10z"/>
<path d="M1930 5429 c0 -5 5 -7 10 -4 6 3 10 8 10 11 0 2 -4 4 -10 4 -5 0 -10
-5 -10 -11z"/>
<path d="M1914 5230 c0 -13 4 -16 10 -10 7 7 7 13 0 20 -6 6 -10 3 -10 -10z"/>
<path d="M1913 5175 c0 -8 4 -15 9 -15 4 0 8 4 8 9 0 6 -4 12 -8 15 -5 3 -9
-1 -9 -9z"/>
<path d="M1880 5170 c-9 -6 -10 -10 -3 -10 6 0 15 5 18 10 8 12 4 12 -15 0z"/>
<path d="M1990 5164 c0 -8 5 -12 10 -9 6 4 8 11 5 16 -9 14 -15 11 -15 -7z"/>
<path d="M1873 5105 c0 -8 4 -12 9 -9 5 3 6 10 3 15 -9 13 -12 11 -12 -6z"/>
<path d="M1905 5110 c-3 -6 1 -7 9 -4 18 7 21 14 7 14 -6 0 -13 -4 -16 -10z"/>
<path d="M1928 5093 c6 -2 9 -10 6 -15 -4 -7 -2 -8 5 -4 13 9 5 26 -12 25 -9
0 -8 -2 1 -6z"/>
<path d="M1928 4973 c6 -2 9 -10 6 -15 -4 -7 -2 -8 5 -4 13 9 5 26 -12 25 -9
0 -8 -2 1 -6z"/>
<path d="M1875 4871 c-3 -5 -2 -12 3 -15 5 -3 9 1 9 9 0 17 -3 19 -12 6z"/>
<path d="M1856 4743 c-6 -14 -5 -15 5 -6 7 7 10 15 7 18 -3 3 -9 -2 -12 -12z"/>
<path d="M1889 4733 c-13 -16 -12 -17 4 -4 9 7 17 15 17 17 0 8 -8 3 -21 -13z"/>
<path d="M1916 4732 c-3 -5 1 -9 9 -9 8 0 12 4 9 9 -3 4 -7 8 -9 8 -2 0 -6 -4
-9 -8z"/>
<path d="M1913 4675 c0 -8 4 -15 9 -15 4 0 8 4 8 9 0 6 -4 12 -8 15 -5 3 -9
-1 -9 -9z"/>
<path d="M1794 4650 c0 -13 4 -16 10 -10 7 7 7 13 0 20 -6 6 -10 3 -10 -10z"/>
<path d="M1901 4614 c0 -11 3 -14 6 -6 3 7 2 16 -1 19 -3 4 -6 -2 -5 -13z"/>
<path d="M1896 4573 c-6 -14 -5 -15 5 -6 7 7 10 15 7 18 -3 3 -9 -2 -12 -12z"/>
<path d="M1913 4545 c0 -8 4 -12 9 -9 4 3 8 9 8 15 0 5 -4 9 -8 9 -5 0 -9 -7
-9 -15z"/>
<path d="M1755 4491 c-3 -5 -2 -12 3 -15 5 -3 9 1 9 9 0 17 -3 19 -12 6z"/>
<path d="M1895 4460 c-4 -6 -10 -8 -15 -5 -5 3 -11 2 -14 -3 -2 -4 6 -8 18 -8
12 0 23 6 23 13 0 16 -4 16 -12 3z"/>
<path d="M1894 4419 c-3 -6 -2 -15 3 -20 5 -5 9 -1 9 11 0 23 -2 24 -12 9z"/>
<path d="M1901 4364 c0 -11 3 -14 6 -6 3 7 2 16 -1 19 -3 4 -6 -2 -5 -13z"/>
<path d="M1873 4326 c-3 -6 -3 -8 2 -4 4 4 13 3 20 -2 8 -7 12 -5 12 3 0 16
-25 18 -34 3z"/>
<path d="M1916 4303 c-6 -14 -5 -15 5 -6 7 7 10 15 7 18 -3 3 -9 -2 -12 -12z"/>
<path d="M1855 4270 c-3 -5 -1 -10 4 -10 6 0 11 5 11 10 0 6 -2 10 -4 10 -3 0
-8 -4 -11 -10z"/>
<path d="M1820 4256 c0 -2 8 -10 18 -17 15 -13 16 -12 3 4 -13 16 -21 21 -21
13z"/>
<path d="M1980 4231 c0 -6 4 -13 10 -16 6 -3 7 1 4 9 -7 18 -14 21 -14 7z"/>
<path d="M1873 4116 c0 -15 22 -15 34 0 4 5 4 6 -1 2 -5 -4 -14 -3 -21 2 -8 7
-12 5 -12 -4z"/>
<path d="M1836 4037 c3 -10 9 -15 12 -12 3 3 0 11 -7 18 -10 9 -11 8 -5 -6z"/>
<path d="M1874 4038 c3 -21 16 -38 29 -38 7 0 4 5 -6 11 -9 6 -15 14 -12 19 3
5 1 11 -4 14 -5 4 -8 0 -7 -6z"/>
<path d="M1856 3972 c-3 -5 1 -9 9 -9 8 0 12 4 9 9 -3 4 -7 8 -9 8 -2 0 -6 -4
-9 -8z"/>
<path d="M1905 3928 l-20 -21 23 12 c12 6 22 16 22 21 0 13 -2 12 -25 -12z"/>
<path d="M1835 3910 c3 -5 8 -10 11 -10 2 0 4 5 4 10 0 6 -5 10 -11 10 -5 0
-7 -4 -4 -10z"/>
<path d="M1877 3882 c-15 -16 -15 -18 2 -18 12 0 17 5 13 15 -4 10 -1 12 8 6
9 -5 11 -4 6 3 -9 15 -10 15 -29 -6z"/>
<path d="M1907 3824 c3 -7 9 -14 14 -14 14 0 10 17 -5 23 -10 4 -13 1 -9 -9z"/>
<path d="M1855 3779 c-4 -6 -5 -12 -2 -15 2 -3 7 2 10 11 7 17 1 20 -8 4z"/>
<path d="M1873 3705 c0 -8 4 -12 9 -9 5 3 6 10 3 15 -9 13 -12 11 -12 -6z"/>
<path d="M1775 3690 c3 -5 8 -10 11 -10 2 0 4 5 4 10 0 6 -5 10 -11 10 -5 0
-7 -4 -4 -10z"/>
<path d="M1815 3670 c3 -5 8 -10 11 -10 2 0 4 5 4 10 0 6 -5 10 -11 10 -5 0
-7 -4 -4 -10z"/>
<path d="M1775 3650 c-3 -5 -1 -10 4 -10 6 0 11 5 11 10 0 6 -2 10 -4 10 -3 0
-8 -4 -11 -10z"/>
<path d="M1870 3649 c0 -5 5 -7 10 -4 6 3 10 8 10 11 0 2 -4 4 -10 4 -5 0 -10
-5 -10 -11z"/>
<path d="M1855 3579 c-4 -6 -5 -12 -2 -15 2 -3 7 2 10 11 7 17 1 20 -8 4z"/>
<path d="M1890 3565 c0 -8 2 -15 4 -15 2 0 6 7 10 15 3 8 1 15 -4 15 -6 0 -10
-7 -10 -15z"/>
<path d="M1773 3459 c-2 -23 3 -25 10 -4 4 8 3 16 -1 19 -4 3 -9 -4 -9 -15z"/>
<path d="M1865 3470 c-3 -6 1 -7 9 -4 18 7 21 14 7 14 -6 0 -13 -4 -16 -10z"/>
<path d="M1890 3445 c0 -8 2 -15 4 -15 2 0 6 7 10 15 3 8 1 15 -4 15 -6 0 -10
-7 -10 -15z"/>
<path d="M1836 3392 c-3 -5 1 -9 9 -9 8 0 12 4 9 9 -3 4 -7 8 -9 8 -2 0 -6 -4
-9 -8z"/>
<path d="M1870 3386 c0 -2 8 -10 18 -17 15 -13 16 -12 3 4 -13 16 -21 21 -21
13z"/>
<path d="M1864 3333 c-1 -13 -1 -23 0 -21 1 2 7 10 14 19 10 13 10 18 0 22 -8
3 -14 -5 -14 -20z"/>
<path d="M1955 3331 c-3 -6 -1 -11 6 -11 20 0 1 -14 -24 -17 -37 -5 -49 -12
-41 -25 5 -8 0 -9 -16 -5 -16 4 -20 3 -12 -5 13 -13 46 -2 37 12 -9 14 19 12
34 -2 10 -11 11 -9 6 7 -6 19 -6 19 8 2 18 -21 28 -10 22 23 -5 28 -11 34 -20
21z"/>
<path d="M1839 3298 c-6 -20 -5 -38 1 -48 5 -7 7 0 6 19 -1 26 -4 39 -7 29z"/>
<path d="M1775 3230 c-3 -5 -1 -10 4 -10 6 0 11 5 11 10 0 6 -2 10 -4 10 -3 0
-8 -4 -11 -10z"/>
<path d="M1815 3219 c-4 -6 -5 -12 -2 -15 2 -3 7 2 10 11 7 17 1 20 -8 4z"/>
<path d="M1675 3211 c-3 -5 -2 -12 3 -15 5 -3 9 1 9 9 0 17 -3 19 -12 6z"/>
<path d="M1868 3175 c-25 -34 -22 -43 3 -11 12 15 20 29 18 31 -2 1 -12 -7
-21 -20z"/>
<path d="M1941 3149 c-8 -15 -9 -24 -2 -33 6 -7 8 -16 4 -19 -3 -4 -12 1 -19
11 -12 15 -15 15 -24 2 -7 -11 -5 -18 7 -27 16 -12 16 -14 0 -26 -16 -11 -16
-14 -2 -32 16 -20 16 -20 6 2 -8 16 -7 22 5 27 11 4 15 2 11 -8 -4 -11 -1 -13
11 -9 15 6 15 5 3 -11 -11 -13 -11 -20 -3 -28 20 -20 13 -32 -7 -14 -20 18
-47 13 -35 -6 5 -8 1 -9 -12 -4 -10 4 -15 4 -11 0 4 -4 2 -12 -3 -19 -7 -8 -5
-12 5 -12 8 0 12 4 9 9 -3 4 -2 8 3 9 4 0 18 2 31 3 27 3 39 -9 17 -18 -8 -3
-15 -11 -14 -18 0 -10 2 -10 6 0 6 16 20 15 20 -2 0 -8 -11 -19 -24 -25 -12
-6 -23 -15 -23 -21 0 -6 -5 -8 -12 -4 -7 5 -8 3 -3 -6 6 -10 11 -10 20 3 7 9
15 14 18 10 4 -3 1 -13 -5 -22 -10 -13 -10 -14 2 -3 21 18 32 14 18 -7 -7 -11
-15 -18 -18 -16 -4 2 -14 -5 -23 -16 -9 -10 -12 -19 -7 -19 6 0 13 6 16 13 2
7 13 13 24 14 12 1 17 -3 13 -13 -3 -7 -9 -12 -14 -9 -10 7 -31 -30 -22 -39 3
-3 1 -6 -5 -6 -7 0 -12 -5 -12 -11 0 -8 4 -8 13 -2 16 13 48 13 67 -1 9 -6 8
-2 -3 10 -16 19 -16 22 -2 28 13 4 14 10 5 26 -6 11 -8 20 -4 20 3 0 1 6 -5
14 -9 11 -9 15 1 19 11 4 11 6 0 6 -9 1 -10 7 -4 19 4 9 8 24 7 32 -1 8 5 22
13 31 11 15 10 19 -8 32 -18 13 -19 15 -4 21 12 5 14 9 5 20 -9 10 -8 16 4 26
8 7 15 17 15 23 0 6 -3 7 -7 4 -3 -4 -12 -2 -20 5 -11 9 -11 14 3 29 14 15 14
20 2 38 -14 20 -14 20 -27 0z m24 -29 c-5 -8 -11 -8 -17 -2 -6 6 -7 16 -3 22
5 8 11 8 17 2 6 -6 7 -16 3 -22z m-25 -35 c5 3 14 -3 20 -14 5 -11 6 -22 2
-25 -10 -6 -62 51 -54 59 3 3 10 -1 15 -10 4 -8 12 -13 17 -10z m26 -67 c4 -7
3 -8 -4 -4 -7 4 -12 2 -12 -5 0 -7 -3 -10 -6 -6 -6 5 3 27 11 27 2 0 7 -5 11
-12z m-41 -38 c3 -5 2 -10 -4 -10 -5 0 -13 5 -16 10 -3 6 -2 10 4 10 5 0 13
-4 16 -10z m49 -9 c3 -5 -1 -14 -8 -20 -12 -10 -14 -9 -11 6 2 10 4 19 4 21 2
5 10 2 15 -7z m-20 -76 c-7 -16 -24 -21 -24 -6 0 8 7 13 27 20 1 1 0 -6 -3
-14z m10 -92 c4 -10 4 -14 0 -10 -5 4 -14 -3 -21 -15 -7 -13 -12 -17 -13 -10
0 7 -4 10 -10 7 -6 -3 -7 1 -4 9 3 9 10 13 15 10 5 -3 12 2 15 10 8 20 10 20
18 -1z"/>
<path d="M1750 3150 c0 -5 5 -10 11 -10 5 0 7 5 4 10 -3 6 -8 10 -11 10 -2 0
-4 -4 -4 -10z"/>
<path d="M1780 3136 c0 -2 8 -10 18 -17 15 -13 16 -12 3 4 -13 16 -21 21 -21
13z"/>
<path d="M1856 3097 c3 -10 9 -15 12 -12 3 3 0 11 -7 18 -10 9 -11 8 -5 -6z"/>
<path d="M1790 3091 c0 -6 4 -13 10 -16 6 -3 7 1 4 9 -7 18 -14 21 -14 7z"/>
<path d="M1856 3053 c-6 -14 -5 -15 5 -6 7 7 10 15 7 18 -3 3 -9 -2 -12 -12z"/>
<path d="M1854 3011 c0 -12 6 -17 18 -13 10 2 18 9 18 15 0 6 -3 7 -7 4 -3 -4
-11 -3 -17 3 -8 6 -12 3 -12 -9z"/>
<path d="M1901 2933 c-1 -16 -6 -20 -23 -17 -21 4 -21 4 -3 -5 24 -11 39 0 32
25 -4 16 -5 16 -6 -3z"/>
<path d="M1828 2926 c4 -6 7 -14 7 -18 0 -19 11 -14 11 6 0 12 -6 23 -13 23
-6 0 -9 -5 -5 -11z"/>
<path d="M1775 2910 c3 -5 8 -10 11 -10 2 0 4 5 4 10 0 6 -5 10 -11 10 -5 0
-7 -4 -4 -10z"/>
<path d="M1730 2889 c0 -5 5 -7 10 -4 6 3 10 8 10 11 0 2 -4 4 -10 4 -5 0 -10
-5 -10 -11z"/>
<path d="M1824 2872 c4 -3 14 -7 22 -8 9 -1 13 0 10 4 -4 3 -14 7 -22 8 -9 1
-13 0 -10 -4z"/>
<path d="M1730 2850 c0 -5 5 -10 11 -10 5 0 7 5 4 10 -3 6 -8 10 -11 10 -2 0
-4 -4 -4 -10z"/>
<path d="M1870 2850 c0 -6 7 -10 15 -10 8 0 15 2 15 4 0 2 -7 6 -15 10 -8 3
-15 1 -15 -4z"/>
<path d="M1786 2768 c3 -5 10 -6 15 -3 13 9 11 12 -6 12 -8 0 -12 -4 -9 -9z"/>
<path d="M1813 2683 c0 -9 4 -10 14 -2 7 6 13 12 13 14 0 1 -6 2 -13 2 -8 0
-14 -6 -14 -14z"/>
<path d="M1878 2693 c7 -3 16 -2 19 1 4 3 -2 6 -13 5 -11 0 -14 -3 -6 -6z"/>
<path d="M1770 2669 c0 -5 5 -7 10 -4 6 3 10 8 10 11 0 2 -4 4 -10 4 -5 0 -10
-5 -10 -11z"/>
<path d="M1845 2669 c-8 -12 0 -22 20 -25 8 -1 13 2 9 7 -3 5 -10 6 -16 3 -7
-5 -9 -1 -5 9 7 19 2 23 -8 6z"/>
<path d="M1893 2650 c0 -16 4 -27 9 -24 4 3 8 14 8 24 0 10 -4 21 -8 24 -5 3
-9 -8 -9 -24z"/>
<path d="M1745 2610 c-3 -6 1 -7 9 -4 18 7 21 14 7 14 -6 0 -13 -4 -16 -10z"/>
<path d="M1875 2601 c-3 -5 0 -13 6 -17 7 -4 9 -3 5 4 -3 5 0 13 6 15 9 4 10
6 1 6 -6 1 -14 -3 -18 -8z"/>
<path d="M1841 2591 c-8 -5 -9 -11 -3 -15 5 -3 12 1 16 9 6 17 6 18 -13 6z"/>
<path d="M1892 2574 c-7 -8 -8 -14 -3 -14 10 0 25 19 20 25 -2 1 -10 -3 -17
-11z"/>
<path d="M1774 2568 c-4 -7 -4 -10 1 -6 4 4 15 2 24 -5 14 -11 14 -10 2 6 -16
20 -18 21 -27 5z"/>
<path d="M1957 2545 c-4 -8 -3 -16 1 -19 4 -3 9 4 9 15 2 23 -3 25 -10 4z"/>
<path d="M1872 2538 c-7 -7 -12 -8 -12 -4 0 5 -7 3 -15 -4 -8 -7 -15 -18 -15
-24 0 -6 5 -3 11 7 6 9 14 15 18 12 5 -2 14 2 21 10 15 18 9 20 -8 3z"/>
<path d="M1730 2530 c0 -5 5 -10 11 -10 5 0 7 5 4 10 -3 6 -8 10 -11 10 -2 0
-4 -4 -4 -10z"/>
<path d="M1786 2532 c-3 -5 1 -9 9 -9 8 0 12 4 9 9 -3 4 -7 8 -9 8 -2 0 -6 -4
-9 -8z"/>
<path d="M1879 2518 c-7 -23 -3 -45 8 -41 16 6 17 23 2 23 -5 0 -7 5 -4 10 3
6 4 10 1 10 -3 0 -6 -1 -7 -2z"/>
<path d="M1734 2466 c1 -8 5 -18 8 -22 4 -3 5 1 4 10 -1 8 -5 18 -8 22 -4 3
-5 -1 -4 -10z"/>
<path d="M1868 2442 c9 -10 19 -17 21 -16 6 5 -20 34 -30 34 -5 0 -1 -8 9 -18z"/>
<path d="M1955 2450 c-3 -5 1 -10 9 -10 9 0 16 5 16 10 0 6 -4 10 -9 10 -6 0
-13 -4 -16 -10z"/>
<path d="M1840 2424 c-11 -12 -10 -18 3 -30 9 -8 13 -9 8 -3 -12 15 -2 41 12
32 6 -3 7 -1 3 5 -9 15 -11 15 -26 -4z"/>
<path d="M1871 2377 c-13 -21 -12 -21 5 -5 10 10 16 20 13 22 -3 3 -11 -5 -18
-17z"/>
<path d="M1955 2370 c-3 -5 1 -10 9 -10 9 0 16 5 16 10 0 6 -4 10 -9 10 -6 0
-13 -4 -16 -10z"/>
<path d="M1835 2359 c-4 -6 -5 -12 -2 -15 2 -3 7 2 10 11 7 17 1 20 -8 4z"/>
<path d="M1736 2343 c-6 -14 -5 -15 5 -6 7 7 10 15 7 18 -3 3 -9 -2 -12 -12z"/>
<path d="M1670 2329 c0 -5 5 -7 10 -4 6 3 10 8 10 11 0 2 -4 4 -10 4 -5 0 -10
-5 -10 -11z"/>
<path d="M1835 2321 c-3 -5 -2 -12 3 -15 5 -3 9 1 9 9 0 17 -3 19 -12 6z"/>
<path d="M1876 2305 c-3 -9 -6 -22 -5 -28 0 -7 5 -1 10 12 5 13 8 26 5 28 -2
2 -6 -3 -10 -12z"/>
<path d="M1797 2300 c7 -8 20 -15 29 -16 9 -1 13 1 9 4 -4 4 -10 7 -13 7 -4 0
-14 4 -22 9 -12 7 -13 6 -3 -4z"/>
<path d="M1900 2296 c0 -2 7 -6 15 -10 8 -3 15 -1 15 4 0 6 -7 10 -15 10 -8 0
-15 -2 -15 -4z"/>
<path d="M1710 2275 c0 -7 30 -13 34 -7 3 4 -4 9 -15 9 -10 1 -19 0 -19 -2z"/>
<path d="M1955 2270 c3 -5 8 -10 11 -10 2 0 4 5 4 10 0 6 -5 10 -11 10 -5 0
-7 -4 -4 -10z"/>
<path d="M1810 2251 c0 -6 4 -12 8 -15 5 -3 9 1 9 9 0 8 -4 15 -9 15 -4 0 -8
-4 -8 -9z"/>
<path d="M1846 2252 c-3 -5 1 -9 9 -9 8 0 15 4 15 9 0 4 -4 8 -9 8 -6 0 -12
-4 -15 -8z"/>
<path d="M1715 2229 c-3 -4 2 -6 10 -5 21 3 28 13 10 13 -9 0 -18 -4 -20 -8z"/>
<path d="M1875 2220 c3 -5 8 -10 11 -10 2 0 4 5 4 10 0 6 -5 10 -11 10 -5 0
-7 -4 -4 -10z"/>
<path d="M1811 2177 c-8 -10 -7 -14 2 -14 8 0 14 6 14 14 0 7 -1 13 -2 13 -2
0 -8 -6 -14 -13z"/>
<path d="M1806 2135 c-18 -14 -18 -14 1 -12 11 0 20 7 20 14 0 7 -1 13 -1 13
-1 0 -9 -7 -20 -15z"/>
<path d="M1860 2131 c0 -6 5 -11 11 -11 5 0 7 -4 4 -10 -3 -6 1 -7 10 -4 9 4
15 7 13 8 -2 1 -11 8 -20 15 -12 9 -18 10 -18 2z"/>
<path d="M1733 2095 c0 -8 4 -12 9 -9 5 3 6 10 3 15 -9 13 -12 11 -12 -6z"/>
<path d="M1787 2089 c7 -9 11 -18 8 -21 -3 -3 5 -13 17 -24 23 -19 23 -19 5 2
-9 11 -15 23 -12 26 3 3 -3 11 -12 19 -16 12 -17 12 -6 -2z"/>
<path d="M1826 2068 c3 -4 9 -8 15 -8 5 0 9 4 9 8 0 5 -7 9 -15 9 -8 0 -12 -4
-9 -9z"/>
<path d="M1867 2043 c3 -7 6 -13 8 -13 2 0 5 6 8 13 3 8 -1 14 -8 14 -7 0 -11
-6 -8 -14z"/>
<path d="M1826 2011 c8 -9 44 -11 44 -3 0 4 -11 8 -25 8 -13 0 -22 -2 -19 -5z"/>
<path d="M1805 1970 c-10 -11 -15 -20 -10 -20 4 0 1 -8 -6 -17 -13 -16 -12
-17 4 -4 9 8 15 16 12 19 -3 3 2 14 12 24 9 10 14 18 11 18 -3 0 -13 -9 -23
-20z"/>
<path d="M1830 1950 c0 -5 5 -10 10 -10 6 0 10 5 10 10 0 6 -4 10 -10 10 -5 0
-10 -4 -10 -10z"/>
<path d="M1891 1934 c0 -11 3 -14 6 -6 3 7 2 16 -1 19 -3 4 -6 -2 -5 -13z"/>
<path d="M1914 1908 c1 -13 -4 -28 -13 -35 -10 -7 -11 -12 -4 -13 6 0 15 5 18
10 3 6 11 10 17 10 7 0 -1 -13 -16 -29 -16 -16 -26 -35 -23 -43 3 -8 6 -6 6 6
1 17 3 17 24 3 15 -10 29 -12 38 -6 11 7 12 9 0 9 -11 0 -11 3 0 17 10 11 10
14 2 9 -7 -4 -13 -2 -13 3 0 6 6 11 13 11 6 0 4 5 -6 11 -9 6 -15 14 -12 19 3
4 -2 11 -11 14 -8 3 -12 10 -9 16 3 5 1 10 -4 10 -6 0 -9 -10 -7 -22z m31 -67
c1 -25 -2 -27 -17 -18 -16 10 -16 13 -1 29 9 10 17 18 17 18 1 0 1 -13 1 -29z"/>
<path d="M1874 1905 c1 -8 6 -18 11 -22 4 -4 5 -3 2 4 -4 6 -2 13 5 15 8 3 6
6 -4 10 -10 4 -15 2 -14 -7z"/>
<path d="M1842 1894 c-7 -8 -8 -14 -3 -14 10 0 25 19 20 25 -2 1 -10 -3 -17
-11z"/>
<path d="M1857 1873 c-3 -5 -1 -17 4 -28 4 -11 8 -14 8 -7 1 7 7 10 14 7 6 -4
4 0 -5 8 -10 8 -15 17 -11 20 3 4 4 7 0 7 -3 0 -8 -3 -10 -7z"/>
<path d="M1750 1810 c0 -5 5 -10 11 -10 5 0 7 5 4 10 -3 6 -8 10 -11 10 -2 0
-4 -4 -4 -10z"/>
<path d="M1860 1810 c-9 -6 -10 -10 -3 -10 6 0 15 5 18 10 8 12 4 12 -15 0z"/>
<path d="M1910 1799 c0 -5 5 -7 10 -4 6 3 10 2 10 -3 0 -5 -10 -14 -22 -21
-23 -11 -23 -11 2 -5 22 6 23 5 11 -10 -8 -9 -21 -14 -30 -11 -11 4 -11 1 3
-14 10 -11 23 -18 27 -15 5 3 9 0 9 -5 0 -6 -7 -11 -15 -11 -9 0 -18 -7 -21
-15 -4 -8 -10 -12 -15 -9 -5 3 -9 0 -9 -5 0 -17 18 -13 28 6 7 11 15 14 28 8
11 -5 22 -9 26 -9 3 -1 9 -4 12 -7 11 -11 -29 -6 -43 5 -11 8 -13 8 -7 -1 4
-7 2 -13 -3 -13 -6 0 -11 -4 -11 -10 0 -5 3 -9 8 -9 20 3 33 -2 27 -11 -4 -6
-10 -8 -14 -6 -11 7 -36 -12 -28 -21 5 -4 11 -2 15 4 5 8 14 7 31 -6 l23 -18
-41 2 -41 2 22 -24 c12 -13 16 -23 10 -23 -7 0 -12 -4 -12 -10 0 -5 3 -9 8 -9
20 3 33 -2 27 -11 -4 -6 -10 -8 -14 -6 -4 3 -13 1 -21 -4 -10 -6 -7 -14 16
-34 22 -19 25 -25 12 -26 -9 0 -19 6 -21 13 -4 9 -6 9 -6 0 -1 -14 53 -45 63
-36 3 4 6 0 6 -7 0 -7 3 -10 6 -7 4 4 1 13 -6 22 -10 12 -9 16 4 21 12 5 13
10 5 25 -5 11 -7 24 -4 29 3 5 1 18 -4 28 -7 13 -7 22 1 30 8 8 8 15 -1 25 -9
11 -8 17 5 27 14 12 14 14 -1 23 -12 7 -13 12 -5 22 14 17 3 38 -14 32 -7 -3
-13 1 -13 8 0 7 5 12 11 11 6 -2 7 -1 3 2 -4 2 -2 11 4 19 10 11 10 16 0 22
-10 6 -9 10 3 14 9 4 13 13 10 22 -4 9 -13 14 -20 11 -7 -3 -16 -1 -19 4 -8
13 -25 13 -25 -1z m56 -21 c4 -6 3 -8 -3 -5 -6 4 -13 0 -17 -8 -3 -8 -1 -17 5
-20 15 -10 1 -24 -21 -22 -21 1 -27 13 -11 19 5 2 11 10 13 18 2 12 17 29 25
30 1 0 5 -5 9 -12z m-9 -125 c-4 -3 -3 -11 3 -17 5 -7 5 -17 0 -26 -7 -11 -10
-12 -10 -2 0 7 -5 10 -12 6 -7 -5 -8 -3 -2 7 5 8 9 17 10 22 3 15 4 17 11 17
3 0 3 -3 0 -7z m-21 -90 c11 -14 13 -14 11 -3 -2 8 -2 12 0 7 3 -4 10 -4 15
-1 7 5 8 2 2 -7 -12 -19 -14 -39 -4 -39 6 0 6 -64 0 -80 -1 -3 -2 -9 -1 -13 1
-5 -3 -6 -9 -2 -6 3 -8 10 -5 14 2 5 -4 16 -15 26 -20 18 -28 41 -11 30 10 -6
24 11 27 33 2 8 -3 11 -12 8 -8 -3 -12 -2 -9 3 3 5 1 12 -5 16 -11 7 -14 25
-4 25 4 0 13 -8 20 -17z"/>
<path d="M1941 1491 c-8 -14 -7 -22 2 -29 10 -9 13 -4 12 19 0 34 -1 35 -14
10z"/>
<path d="M1793 1793 c4 -3 -1 -16 -10 -27 -18 -21 -18 -21 4 -2 20 16 23 36 6
36 -4 0 -3 -3 0 -7z"/>
<path d="M1868 1783 c6 -2 18 -2 25 0 6 3 1 5 -13 5 -14 0 -19 -2 -12 -5z"/>
<path d="M1840 1739 c13 -23 22 -25 13 -2 -5 12 -3 14 8 8 8 -5 11 -4 6 0 -4
5 -14 10 -22 11 -12 2 -12 -2 -5 -17z"/>
<path d="M1794 1704 c1 -8 4 -15 7 -16 2 -2 3 -1 2 1 -2 2 2 9 7 16 7 8 5 12
-4 12 -8 0 -13 -6 -12 -13z"/>
<path d="M1870 1710 c0 -5 5 -10 10 -10 6 0 10 5 10 10 0 6 -4 10 -10 10 -5 0
-10 -4 -10 -10z"/>
<path d="M1750 1706 c0 -2 8 -10 18 -17 15 -13 16 -12 3 4 -13 16 -21 21 -21
13z"/>
<path d="M1844 1645 c-4 -8 -11 -12 -17 -8 -5 3 -7 1 -4 -5 8 -12 32 -10 44 3
5 4 2 5 -6 0 -11 -6 -13 -4 -8 8 3 10 4 17 1 17 -2 0 -7 -7 -10 -15z"/>
<path d="M1730 1629 c0 -5 5 -7 10 -4 6 3 10 8 10 11 0 2 -4 4 -10 4 -5 0 -10
-5 -10 -11z"/>
<path d="M1826 1595 c-4 -11 -4 -16 0 -12 4 4 13 -1 21 -11 12 -16 13 -16 6 2
-5 14 -3 17 7 11 9 -5 11 -4 6 4 -4 6 -11 9 -16 6 -4 -3 -10 0 -12 7 -3 7 -7
4 -12 -7z"/>
<path d="M1870 1550 c0 -5 5 -10 10 -10 6 0 10 5 10 10 0 6 -4 10 -10 10 -5 0
-10 -4 -10 -10z"/>
<path d="M1793 1525 c0 -8 4 -12 9 -9 5 3 6 10 3 15 -9 13 -12 11 -12 -6z"/>
<path d="M1826 1532 c-3 -5 1 -9 9 -9 8 0 12 4 9 9 -3 4 -7 8 -9 8 -2 0 -6 -4
-9 -8z"/>
<path d="M1735 1510 c3 -5 8 -10 11 -10 2 0 4 5 4 10 0 6 -5 10 -11 10 -5 0
-7 -4 -4 -10z"/>
<path d="M1822 1490 c0 -14 2 -19 5 -12 2 6 2 18 0 25 -3 6 -5 1 -5 -13z"/>
<path d="M1860 1489 c0 -5 5 -7 10 -4 6 3 10 8 10 11 0 2 -4 4 -10 4 -5 0 -10
-5 -10 -11z"/>
<path d="M1713 1475 c0 -8 4 -12 9 -9 5 3 6 10 3 15 -9 13 -12 11 -12 -6z"/>
<path d="M1877 1457 c-3 -8 -2 -20 3 -26 5 -9 8 -4 8 13 0 29 -3 32 -11 13z"/>
<path d="M1856 1427 c3 -10 9 -15 12 -12 3 3 0 11 -7 18 -10 9 -11 8 -5 -6z"/>
<path d="M1710 1409 c0 -5 5 -7 10 -4 6 3 10 8 10 11 0 2 -4 4 -10 4 -5 0 -10
-5 -10 -11z"/>
<path d="M1815 1399 c-4 -6 -5 -12 -2 -15 2 -3 7 2 10 11 7 17 1 20 -8 4z"/>
<path d="M1875 1400 c-3 -5 -1 -10 4 -10 6 0 11 5 11 10 0 6 -2 10 -4 10 -3 0
-8 -4 -11 -10z"/>
<path d="M1745 1370 c-3 -6 1 -7 9 -4 18 7 21 14 7 14 -6 0 -13 -4 -16 -10z"/>
<path d="M1810 1351 c0 -6 4 -13 10 -16 6 -3 7 1 4 9 -7 18 -14 21 -14 7z"/>
<path d="M1868 1353 c7 -3 16 -2 19 1 4 3 -2 6 -13 5 -11 0 -14 -3 -6 -6z"/>
<path d="M1786 1330 c5 -8 9 -18 9 -22 0 -3 3 -9 7 -13 3 -4 5 0 4 9 -1 9 -8
22 -16 29 -10 10 -11 9 -4 -3z"/>
<path d="M1834 1274 c0 -20 11 -25 11 -6 0 4 3 12 7 18 4 6 1 11 -5 11 -7 0
-13 -11 -13 -23z"/>
<path d="M1714 1266 c1 -8 5 -18 8 -22 4 -3 5 1 4 10 -1 8 -5 18 -8 22 -4 3
-5 -1 -4 -10z"/>
<path d="M1669 1253 c-13 -16 -12 -17 4 -4 16 13 21 21 13 21 -2 0 -10 -8 -17
-17z"/>
<path d="M1855 1240 c-4 -6 1 -7 11 -3 13 5 15 3 9 -7 -5 -9 -4 -11 4 -6 6 4
9 12 6 17 -8 12 -22 12 -30 -1z"/>
<path d="M1876 1197 c3 -10 9 -15 12 -12 3 3 0 11 -7 18 -10 9 -11 8 -5 -6z"/>
<path d="M1726 1188 c3 -5 10 -6 15 -3 13 9 11 12 -6 12 -8 0 -12 -4 -9 -9z"/>
<path d="M1849 1173 c-13 -16 -12 -17 4 -4 16 13 21 21 13 21 -2 0 -10 -8 -17
-17z"/>
<path d="M1827 1149 c7 -7 15 -10 18 -7 3 3 -2 9 -12 12 -14 6 -15 5 -6 -5z"/>
<path d="M1860 1146 c0 -2 7 -7 16 -10 8 -3 12 -2 9 4 -6 10 -25 14 -25 6z"/>
<path d="M1775 1110 c-3 -5 -1 -10 4 -10 6 0 11 5 11 10 0 6 -2 10 -4 10 -3 0
-8 -4 -11 -10z"/>
<path d="M1881 1111 c-9 -6 -10 -11 -2 -15 6 -4 11 -2 11 4 0 6 5 8 12 4 7 -4
8 -3 4 4 -8 14 -7 14 -25 3z"/>
<path d="M1830 1106 c0 -2 8 -10 18 -17 15 -13 16 -12 3 4 -13 16 -21 21 -21
13z"/>
<path d="M1938 1075 c-21 -27 -22 -35 -7 -35 5 0 8 4 4 9 -3 5 -2 12 3 14 4 3
13 -6 19 -19 10 -22 9 -24 -5 -20 -9 3 -24 1 -32 -5 -12 -8 -10 -9 8 -4 22 6
32 -10 11 -17 -7 -2 -5 -9 5 -17 14 -12 16 -12 11 1 -4 9 0 15 9 15 8 0 14 -9
13 -19 -1 -10 -9 -18 -19 -18 -9 0 -20 -5 -24 -11 -4 -8 1 -9 16 -4 17 5 20 4
15 -5 -4 -7 -9 -27 -11 -44 -3 -21 -1 -27 5 -17 5 8 7 19 5 26 -3 6 2 12 11
12 11 0 14 -6 9 -16 -3 -9 -7 -23 -8 -31 0 -8 -10 -20 -21 -27 -11 -7 -16 -12
-11 -13 5 0 23 9 41 20 34 21 41 54 14 71 -12 7 -12 9 1 9 12 1 11 3 -3 11
-13 7 -15 14 -8 23 10 12 10 33 0 51 -6 10 -5 38 2 64 7 24 -35 21 -53 -4z
m41 -7 c-5 -10 -7 -24 -3 -30 4 -7 3 -8 -5 -4 -7 5 -9 16 -5 28 4 15 3 18 -6
13 -8 -5 -11 -4 -7 2 3 5 13 10 21 10 11 0 13 -5 5 -19z m5 -56 c3 -5 -1 -9
-9 -9 -8 0 -12 4 -9 9 3 4 7 8 9 8 2 0 6 -4 9 -8z m6 -76 c0 -3 -4 -8 -10 -11
-5 -3 -10 -1 -10 4 0 6 5 11 10 11 6 0 10 -2 10 -4z m16 -45 c0 -11 -4 -17 -8
-15 -4 3 -8 0 -8 -7 0 -7 -3 -10 -6 -7 -5 5 12 48 19 48 2 0 3 -9 3 -19z"/>
<path d="M1776 1072 c-3 -4 4 -9 15 -9 23 -2 25 3 4 10 -8 4 -16 3 -19 -1z"/>
<path d="M1827 1069 c7 -7 15 -10 18 -7 3 3 -2 9 -12 12 -14 6 -15 5 -6 -5z"/>
<path d="M1873 1073 c4 -3 -1 -16 -10 -27 -10 -12 -11 -16 -4 -9 11 10 17 9
26 -4 10 -13 14 -13 20 -3 5 9 4 11 -3 6 -12 -7 -16 5 -13 32 1 6 -4 12 -10
12 -7 0 -9 -3 -6 -7z"/>
<path d="M1726 1012 c-3 -5 1 -9 9 -9 8 0 12 4 9 9 -3 4 -7 8 -9 8 -2 0 -6 -4
-9 -8z"/>
<path d="M1856 1008 c3 -5 10 -6 15 -3 13 9 11 12 -6 12 -8 0 -12 -4 -9 -9z"/>
<path d="M1776 992 c-2 -4 -1 -14 4 -22 7 -11 9 -9 7 8 -1 24 -3 26 -11 14z"/>
<path d="M1856 977 c3 -10 9 -15 12 -12 3 3 0 11 -7 18 -10 9 -11 8 -5 -6z"/>
<path d="M1916 963 c-6 -14 -5 -15 5 -6 7 7 10 15 7 18 -3 3 -9 -2 -12 -12z"/>
<path d="M1898 938 c8 -9 11 -22 7 -28 -4 -7 2 -6 14 2 14 8 17 14 9 17 -7 2
-20 9 -28 15 -13 9 -13 9 -2 -6z"/>
<path d="M1830 891 c0 -6 4 -13 10 -16 6 -3 7 1 4 9 -7 18 -14 21 -14 7z"/>
<path d="M1920 815 c0 -2 6 -8 13 -14 10 -8 14 -7 14 2 0 8 -6 14 -14 14 -7 0
-13 -1 -13 -2z"/>
<path d="M1870 789 c0 -5 5 -7 10 -4 6 3 10 8 10 11 0 2 -4 4 -10 4 -5 0 -10
-5 -10 -11z"/>
<path d="M1895 750 c-3 -5 -1 -10 4 -10 6 0 11 5 11 10 0 6 -2 10 -4 10 -3 0
-8 -4 -11 -10z"/>
<path d="M1956 723 c-6 -14 -5 -15 5 -6 7 7 10 15 7 18 -3 3 -9 -2 -12 -12z"/>
<path d="M4595 699 c-4 -6 -5 -12 -2 -15 2 -3 7 2 10 11 7 17 1 20 -8 4z"/>
<path d="M1955 690 c-3 -5 -1 -10 4 -10 6 0 11 5 11 10 0 6 -2 10 -4 10 -3 0
-8 -4 -11 -10z"/>
<path d="M2017 645 c-4 -8 -3 -16 1 -19 4 -3 9 4 9 15 2 23 -3 25 -10 4z"/>
<path d="M2020 590 c8 -5 20 -10 25 -10 6 0 3 5 -5 10 -8 5 -19 10 -25 10 -5
0 -3 -5 5 -10z"/>
<path d="M4390 569 c0 -5 5 -7 10 -4 6 3 10 8 10 11 0 2 -4 4 -10 4 -5 0 -10
-5 -10 -11z"/>
<path d="M4450 549 c0 -5 5 -7 10 -4 6 3 10 8 10 11 0 2 -4 4 -10 4 -5 0 -10
-5 -10 -11z"/>
<path d="M2210 541 c0 -6 4 -13 10 -16 6 -3 7 1 4 9 -7 18 -14 21 -14 7z"/>
<path d="M2193 523 c0 -11 7 -20 14 -20 10 0 10 4 1 16 -7 9 -13 18 -15 20 -1
2 -1 -5 0 -16z"/>
<path d="M2430 530 c0 -5 5 -10 11 -10 5 0 7 5 4 10 -3 6 -8 10 -11 10 -2 0
-4 -4 -4 -10z"/>
<path d="M2235 510 c-3 -5 -1 -10 4 -10 6 0 11 5 11 10 0 6 -2 10 -4 10 -3 0
-8 -4 -11 -10z"/>
<path d="M2756 512 c-7 -12 10 -35 22 -28 12 7 38 -22 28 -31 -4 -4 -11 -1
-16 7 -6 9 -10 10 -10 3 0 -18 20 -27 32 -15 8 8 8 15 0 24 -10 13 -12 18 -12
40 0 6 -7 3 -16 -8 -8 -10 -13 -14 -10 -7 7 13 -10 28 -18 15z"/>
<path d="M3120 501 c-8 -6 -18 -7 -22 -5 -4 3 -8 0 -8 -6 0 -7 7 -9 16 -6 8 3
13 2 10 -2 -2 -4 0 -14 5 -22 9 -13 10 -13 6 0 -2 8 0 23 5 33 10 19 9 20 -12
8z"/>
<path d="M2273 488 c1 -7 -4 -12 -11 -10 -8 1 -11 -2 -7 -8 5 -8 11 -7 21 1
16 13 18 29 4 29 -5 0 -9 -6 -7 -12z"/>
<path d="M2320 489 c0 -5 5 -7 10 -4 6 3 10 8 10 11 0 2 -4 4 -10 4 -5 0 -10
-5 -10 -11z"/>
<path d="M3880 490 c-12 -7 -10 -9 7 -7 12 0 19 5 17 9 -6 10 -6 10 -24 -2z"/>
<path d="M3955 490 c3 -5 8 -10 11 -10 2 0 4 5 4 10 0 6 -5 10 -11 10 -5 0 -7
-4 -4 -10z"/>
<path d="M4026 492 c-3 -5 1 -9 9 -9 8 0 15 4 15 9 0 4 -4 8 -9 8 -6 0 -12 -4
-15 -8z"/>
<path d="M4186 484 c-5 -13 -4 -14 7 -6 8 7 18 8 22 4 5 -4 5 -1 1 6 -10 17
-23 15 -30 -4z"/>
<path d="M2335 470 c-3 -5 -1 -10 4 -10 6 0 11 5 11 10 0 6 -2 10 -4 10 -3 0
-8 -4 -11 -10z"/>
<path d="M2455 471 c-3 -5 0 -13 6 -17 8 -5 9 -3 4 6 -6 10 -4 12 9 7 10 -4
15 -3 11 3 -8 13 -22 13 -30 1z"/>
<path d="M4146 468 c3 -5 10 -6 15 -3 13 9 11 12 -6 12 -8 0 -12 -4 -9 -9z"/>
<path d="M2501 467 c2 -1 14 -11 27 -21 12 -11 22 -16 22 -13 0 10 -31 37 -42
37 -6 0 -9 -1 -7 -3z"/>
<path d="M2710 461 c0 -5 7 -12 16 -15 14 -5 15 -4 4 9 -14 17 -20 19 -20 6z"/>
<path d="M3071 461 c-10 -7 -7 -9 12 -8 14 1 23 5 20 10 -6 9 -15 9 -32 -2z"/>
<path d="M2413 440 c1 -21 10 -18 13 5 1 8 -2 15 -6 15 -5 0 -8 -9 -7 -20z"/>
<path d="M2662 450 c10 -6 15 -19 13 -30 -2 -11 0 -18 5 -15 17 10 -2 55 -23
55 -7 0 -4 -5 5 -10z"/>
<path d="M2839 443 c-13 -17 -13 -17 6 -3 11 8 22 16 24 17 2 2 0 3 -6 3 -6 0
-17 -8 -24 -17z"/>
<path d="M4334 452 c4 -3 14 -7 22 -8 9 -1 13 0 10 4 -4 3 -14 7 -22 8 -9 1
-13 0 -10 -4z"/>
<path d="M2750 446 c0 -2 8 -10 18 -17 15 -13 16 -12 3 4 -13 16 -21 21 -21
13z"/>
<path d="M2870 440 c-9 -6 -10 -10 -3 -10 6 0 15 5 18 10 8 12 4 12 -15 0z"/>
<path d="M3226 433 c-6 -14 -5 -15 5 -6 7 7 10 15 7 18 -3 3 -9 -2 -12 -12z"/>
<path d="M3512 434 c-11 -12 -9 -13 7 -11 11 2 24 7 28 12 5 4 3 5 -4 2 -6 -4
-13 -3 -15 2 -1 5 -9 3 -16 -5z"/>
<path d="M2376 432 c-3 -5 1 -9 9 -9 8 0 12 4 9 9 -3 4 -7 8 -9 8 -2 0 -6 -4
-9 -8z"/>
<path d="M2635 430 c-3 -5 -1 -10 4 -10 6 0 11 5 11 10 0 6 -2 10 -4 10 -3 0
-8 -4 -11 -10z"/>
<path d="M2958 433 c7 -3 16 -2 19 1 4 3 -2 6 -13 5 -11 0 -14 -3 -6 -6z"/>
<path d="M3940 430 c0 -5 7 -7 15 -4 8 4 15 8 15 10 0 2 -7 4 -15 4 -8 0 -15
-4 -15 -10z"/>
<path d="M4250 420 c-6 -11 -8 -20 -6 -20 3 0 10 9 16 20 6 11 8 20 6 20 -3 0
-10 -9 -16 -20z"/>
<path d="M2734 405 c0 -13 3 -22 7 -19 8 4 6 30 -2 38 -3 3 -5 -5 -5 -19z"/>
<path d="M2810 426 c0 -2 8 -10 18 -17 15 -13 16 -12 3 4 -13 16 -21 21 -21
13z"/>
<path d="M2944 412 c23 -26 23 -26 23 -7 0 8 -3 13 -5 10 -3 -3 -12 1 -21 7
-10 8 -9 4 3 -10z"/>
<path d="M3468 423 c7 -3 16 -2 19 1 4 3 -2 6 -13 5 -11 0 -14 -3 -6 -6z"/>
<path d="M3857 415 c-4 -8 -3 -16 1 -19 4 -3 9 4 9 15 2 23 -3 25 -10 4z"/>
<path d="M3921 414 c0 -11 3 -14 6 -6 3 7 2 16 -1 19 -3 4 -6 -2 -5 -13z"/>
<path d="M3196 403 c-6 -14 -5 -15 5 -6 7 7 10 15 7 18 -3 3 -9 -2 -12 -12z"/>
<path d="M3286 408 c3 -5 10 -6 15 -3 13 9 11 12 -6 12 -8 0 -12 -4 -9 -9z"/>
<path d="M3370 408 c0 -6 3 -8 7 -5 3 4 13 1 22 -6 14 -11 14 -10 2 6 -15 20
-31 22 -31 5z"/>
<path d="M3612 415 c3 -3 16 -8 28 -10 12 -2 20 -1 16 2 -4 4 -16 8 -28 10
-12 2 -19 1 -16 -2z"/>
<path d="M3777 408 c-7 -5 0 -6 17 -4 16 3 31 7 33 10 8 8 -37 2 -50 -6z"/>
<path d="M3880 411 c0 -5 7 -12 16 -15 14 -5 15 -4 4 9 -14 17 -20 19 -20 6z"/>
<path d="M3965 410 c3 -5 11 -10 16 -10 6 0 7 5 4 10 -3 6 -11 10 -16 10 -6 0
-7 -4 -4 -10z"/>
<path d="M4020 405 c0 -8 2 -15 4 -15 2 0 6 7 10 15 3 8 1 15 -4 15 -6 0 -10
-7 -10 -15z"/>
<path d="M4050 405 c0 -8 2 -15 4 -15 2 0 6 7 10 15 3 8 1 15 -4 15 -6 0 -10
-7 -10 -15z"/>
<path d="M2574 392 c4 -3 14 -7 22 -8 9 -1 13 0 10 4 -4 3 -14 7 -22 8 -9 1
-13 0 -10 -4z"/>
<path d="M2770 389 c0 -5 5 -7 10 -4 6 3 10 8 10 11 0 2 -4 4 -10 4 -5 0 -10
-5 -10 -11z"/>
<path d="M3550 385 c5 -7 7 -15 3 -18 -3 -4 -1 -7 5 -7 6 0 10 8 9 18 0 10 -7
19 -14 19 -9 0 -10 -4 -3 -12z"/>
<path d="M3590 386 c7 -7 13 -7 20 0 6 6 3 10 -10 10 -13 0 -16 -4 -10 -10z"/>
<path d="M3939 398 c0 -2 -2 -13 -3 -26 -3 -21 -2 -21 18 -5 12 10 23 20 26
22 3 2 -6 0 -19 -4 -16 -5 -21 -4 -17 4 4 6 5 11 2 11 -3 0 -6 -1 -7 -2z"/>
<path d="M3995 390 c-3 -5 -1 -10 4 -10 6 0 11 5 11 10 0 6 -2 10 -4 10 -3 0
-8 -4 -11 -10z"/>
<path d="M4070 390 c0 -6 7 -10 15 -10 8 0 15 2 15 4 0 2 -7 6 -15 10 -8 3
-15 1 -15 -4z"/>
<path d="M4115 390 c-3 -5 -1 -10 4 -10 6 0 11 5 11 10 0 6 -2 10 -4 10 -3 0
-8 -4 -11 -10z"/>
<path d="M4159 393 c0 -5 -2 -16 -4 -26 -2 -11 -1 -16 3 -13 8 8 14 46 7 46
-3 0 -5 -3 -6 -7z"/>
<path d="M3455 379 c-4 -6 -5 -12 -2 -15 2 -3 7 2 10 11 7 17 1 20 -8 4z"/>
<path d="M3496 377 c3 -10 9 -15 12 -12 3 3 0 11 -7 18 -10 9 -11 8 -5 -6z"/>
<path d="M3134 366 c1 -8 5 -18 8 -22 4 -3 5 1 4 10 -1 8 -5 18 -8 22 -4 3 -5
-1 -4 -10z"/>
<path d="M3700 376 c0 -2 8 -10 18 -17 15 -13 16 -12 3 4 -13 16 -21 21 -21
13z"/>
<path d="M3813 363 c0 -10 4 -10 16 -1 9 7 18 13 20 15 2 1 -5 1 -16 0 -11 0
-20 -7 -20 -14z"/>
<path d="M4016 363 c-6 -14 -5 -15 5 -6 7 7 10 15 7 18 -3 3 -9 -2 -12 -12z"/>
<path d="M3336 348 c3 -5 10 -6 15 -3 13 9 11 12 -6 12 -8 0 -12 -4 -9 -9z"/>
<path d="M3370 349 c0 -5 5 -7 10 -4 6 3 10 8 10 11 0 2 -4 4 -10 4 -5 0 -10
-5 -10 -11z"/>
<path d="M4109 347 c6 -8 7 -18 3 -22 -4 -5 -1 -5 6 -1 10 6 10 11 1 22 -6 8
-14 14 -16 14 -3 0 0 -6 6 -13z"/>
<path d="M3550 336 c0 -2 7 -7 16 -10 8 -3 12 -2 9 4 -6 10 -25 14 -25 6z"/>
<path d="M3655 330 c-3 -5 -1 -10 4 -10 6 0 11 5 11 10 0 6 -2 10 -4 10 -3 0
-8 -4 -11 -10z"/>
<path d="M3956 323 c-6 -14 -5 -15 5 -6 7 7 10 15 7 18 -3 3 -9 -2 -12 -12z"/>
<path d="M4056 328 c3 -5 10 -6 15 -3 13 9 11 12 -6 12 -8 0 -12 -4 -9 -9z"/>
<path d="M4145 330 c-3 -6 1 -7 9 -4 18 7 21 14 7 14 -6 0 -13 -4 -16 -10z"/>
<path d="M3470 313 c0 -6 8 -17 18 -24 16 -13 16 -13 2 6 -8 11 -16 22 -17 24
-2 2 -3 0 -3 -6z"/>
<path d="M3775 310 c3 -5 8 -10 11 -10 2 0 4 5 4 10 0 6 -5 10 -11 10 -5 0 -7
-4 -4 -10z"/>
<path d="M2675 290 c-3 -5 -1 -10 4 -10 6 0 11 5 11 10 0 6 -2 10 -4 10 -3 0
-8 -4 -11 -10z"/>
<path d="M3850 290 c0 -5 5 -10 11 -10 5 0 7 5 4 10 -3 6 -8 10 -11 10 -2 0
-4 -4 -4 -10z"/>
<path d="M3939 298 c-5 -18 -6 -38 -1 -34 7 8 12 36 6 36 -2 0 -4 -1 -5 -2z"/>
<path d="M4016 288 c3 -5 10 -6 15 -3 13 9 11 12 -6 12 -8 0 -12 -4 -9 -9z"/>
<path d="M3815 271 c-3 -5 -2 -12 3 -15 5 -3 9 1 9 9 0 17 -3 19 -12 6z"/>
</g>
</svg>
